<svg xmlns="http://www.w3.org/2000/svg" viewBox="0 0 107 18" width="107" height="18">
	<style>
		tspan { white-space:pre }
	</style>
	<path id="NXPlay " fill="#ffd80e" d="M0.74 0.24L0.74 18L4.43 18L4.43 6.44L13.26 18L16.46 18L16.46 0.24L12.75 0.24L12.75 11.44L4.18 0.24ZM36.32 0.24L32.05 0.24L28.14 6.14L24.29 0.24L19.9 0.24L25.87 8.97L19.63 18L23.9 18L28.04 11.75L32.17 18L36.56 18L30.34 8.9Z" />
	<path id="NXPlay " fill="#ffffff" d="M39.75 0.24L39.75 18L43.49 18L43.49 12.58L46.59 12.58C47.58 12.58 48.51 12.45 49.37 12.19C50.23 11.93 50.99 11.54 51.64 11.02C52.29 10.5 52.8 9.86 53.17 9.08C53.55 8.31 53.73 7.41 53.73 6.39L53.73 6.34C53.73 5.44 53.58 4.62 53.27 3.87C52.96 3.13 52.51 2.48 51.93 1.95C51.34 1.41 50.63 0.99 49.79 0.69C48.96 0.39 48.01 0.24 46.95 0.24ZM46.71 9.24L43.49 9.24L43.49 3.63L46.63 3.63C47.66 3.63 48.47 3.87 49.06 4.34C49.66 4.81 49.95 5.5 49.95 6.41L49.95 6.46C49.95 7.26 49.67 7.92 49.1 8.45C48.53 8.98 47.73 9.24 46.71 9.24ZM56.91 0.24L56.91 18L69.59 18L69.59 14.58L60.64 14.58L60.64 0.24ZM78.91 0.12L71.25 18L75.08 18L76.74 13.95L84.43 13.95L86.08 18L90.01 18L82.38 0.12ZM83.08 10.63L78.08 10.63L80.6 4.61ZM95.28 11L95.28 18L99.04 18L99.04 10.92L105.92 0.24L101.65 0.24L97.19 7.51L92.82 0.24L88.43 0.24Z" />
</svg>