<?xml version="1.0" standalone="no"?>
<!DOCTYPE svg PUBLIC "-//W3C//DTD SVG 1.1//EN" "http://www.w3.org/Graphics/SVG/1.1/DTD/svg11.dtd" >
<svg xmlns="http://www.w3.org/2000/svg">
<metadata>Ionicon CSS Fonts</metadata>
<defs>
<font id="ionicon" horiz-adv-x="1024">
<font-face units-per-em="1024" ascent="960" descent="-64" />
<missing-glyph horiz-adv-x="1024" />
<glyph unicode="&#x20;" horiz-adv-x="512" d="" />
<glyph unicode="&#xe900;" glyph-name="analytics-sharp" horiz-adv-x="1037" d="M937.607 724.588c-31.306-0.017-60.788-14.781-79.539-39.851s-24.571-57.519-15.725-87.559l-154.135-154.116c-20.325 6.765-42.302 6.765-62.631 0l-114.265 114.265c10.301 40.193-5.477 82.574-39.543 106.247s-79.296 23.673-113.368 0c-34.073-23.673-49.844-66.055-39.543-106.247l-191.11-190.972c-43.651 12.913-90.499-5.416-113.767-44.55s-17.029-89.047 15.148-121.235c32.175-32.197 82.097-38.443 121.235-15.193s57.48 70.099 44.584 113.767l188.69 188.659c20.324-6.776 42.302-6.776 62.631 0l114.284-114.284c-10.301-40.193 5.477-82.574 39.543-106.247s79.296-23.673 113.368 0c34.073 23.673 49.844 66.055 39.543 106.247l156.535 156.44c37.322-11.012 77.637 0.779 103.149 30.166s31.506 70.964 15.334 106.368c-16.163 35.393-51.5 58.102-90.407 58.101z" />
<glyph unicode="&#xe901;" glyph-name="add-circle-outline" d="M1024 448c0 282.675-229.325 512-512 512s-512-229.325-512-512c0-282.675 229.325-512 512-512s512 229.325 512 512zM945.231 448c0-239.172-194.059-433.231-433.231-433.231s-433.231 194.059-433.231 433.231c0 239.172 194.059 433.231 433.231 433.231s433.231-194.059 433.231-433.231zM472.615 644.923v-393.846c0-21.752 17.633-39.385 39.385-39.385s39.385 17.633 39.385 39.385v393.846c0 21.752-17.633 39.385-39.385 39.385s-39.385-17.633-39.385-39.385zM708.923 487.385h-393.846c-21.752 0-39.385-17.633-39.385-39.385s17.633-39.385 39.385-39.385h393.846c21.752 0 39.385 17.633 39.385 39.385s-17.633 39.385-39.385 39.385z" />
<glyph unicode="&#xe902;" glyph-name="add-circle-sharp" d="M512 960c-282.314 0-512-229.686-512-512s229.686-512 512-512c282.314 0 512 229.686 512 512s-229.686 512-512 512zM748.308 408.615h-196.923v-196.923h-78.769v196.923h-196.923v78.769h196.923v196.923h78.769v-196.923h196.923v-78.769z" />
<glyph unicode="&#xe903;" glyph-name="add-circle" d="M512 960c-282.314 0-512-229.686-512-512s229.686-512 512-512c282.314 0 512 229.686 512 512s-229.686 512-512 512zM708.923 408.615h-157.538v-157.538c0-21.752-17.633-39.385-39.385-39.385s-39.385 17.633-39.385 39.385v157.538h-157.538c-21.752 0-39.385 17.633-39.385 39.385s17.633 39.385 39.385 39.385h157.538v157.538c0 21.752 17.633 39.385 39.385 39.385s39.385-17.633 39.385-39.385v-157.538h157.538c21.752 0 39.385-17.633 39.385-39.385s-17.633-39.385-39.385-39.385z" />
<glyph unicode="&#xe904;" glyph-name="add-outline" d="M460.8 908.8v-921.6c0-28.277 22.923-51.2 51.2-51.2s51.2 22.923 51.2 51.2v921.6c0 28.277-22.923 51.2-51.2 51.2s-51.2-22.923-51.2-51.2zM972.8 499.2h-921.6c-28.277 0-51.2-22.923-51.2-51.2s22.923-51.2 51.2-51.2h921.6c28.277 0 51.2 22.923 51.2 51.2s-22.923 51.2-51.2 51.2z" />
<glyph unicode="&#xe905;" glyph-name="add-sharp" d="M563.2 960h-102.4v-1024h102.4zM1024 396.8v102.4h-1024v-102.4z" />
<glyph unicode="&#xe906;" glyph-name="add" d="M460.8 908.8v-921.6c0-28.277 22.923-51.2 51.2-51.2s51.2 22.923 51.2 51.2v921.6c0 28.277-22.923 51.2-51.2 51.2s-51.2-22.923-51.2-51.2zM972.8 499.2h-921.6c-28.277 0-51.2-22.923-51.2-51.2s22.923-51.2 51.2-51.2h921.6c28.277 0 51.2 22.923 51.2 51.2s-22.923 51.2-51.2 51.2z" />
<glyph unicode="&#xe907;" glyph-name="airplane-outline" horiz-adv-x="1182" d="M776.082 561.661l-308.23 374.738c-10.883 13.923-27.243 22.51-44.918 23.535-0.76 0.044-1.52 0.066-2.281 0.066h-66.191c-28.628 0-47.692-29.575-35.87-55.649l158.542-349.662-239.562-3.544-85.109 103.51c-15.058 19.119-39.895 29.528-63.996 29.528h-46.425c-20.729 0-38.19-14.631-41.364-35.261-0.803-5.217-0.608-9.786 0.133-14.296 0.306-1.86 0.677-3.529 1.124-5.215l49.149-176.939c0.361-1.299 0.788-2.579 1.281-3.835 0.068-0.173 0.068-0.366 0-0.539-0.487-1.243-0.911-2.509-1.27-3.795l-48.788-174.909c-0.964-3.254-1.653-6.3-2.039-9.845-0.806-7.393-0.056-14.959 3.54-22.872 4.638-10.208 12.872-17.682 22.69-21.645 6.141-2.479 11.976-3.342 18.004-3.342h44.111c30.998 0 45.37 7.216 63.612 30.098l86.894 105.333 238.176-5.329-158.708-350.152c-11.818-26.073 7.246-55.644 35.872-55.644h65.575c0.765 0 1.529 0.022 2.292 0.067 17.64 1.028 33.969 9.588 44.85 23.469l308.947 374.615 146.967-3.975c10.639-0.345 29.525-0.575 41.165-0.575 58.94 0 108.858 8.191 145.72 24.466 44.293 19.556 71.56 51.977 71.56 93.934 0 41.968-27.224 74.35-71.498 93.831-36.258 15.953-85.213 24.079-143.166 24.317l-5.585 0.001-7.577-0.042c-11.987-0.094-26.114-0.326-33.482-0.631l-1.936-0.090-142.213-3.725zM421.563 28.026l148.489 327.648c5.864 14.037 4.413 30.065-3.875 42.821s-22.344 20.594-37.553 20.94l-297.073 6.646c-18.13 0.403-35.421-7.471-47.012-21.338l-94.24-114.275-0.336-0.003 36.56 131.072c6.216 17.338 6.219 36.299 0.008 53.638l-36.094 129.93c0.24-0.066 0.479-0.142 0.709-0.226l0.397-0.159 90.596-110.185c11.32-14.196 28.518-22.404 46.645-22.299l299.631 4.432c15.145-0.172 29.43 7.272 37.952 19.905 8.829 13.088 10.179 29.825 3.587 44.146l-149.078 328.79 303.753-369.295c8.386-11.325 21.768-17.986 35.965-17.757l166.054 4.435c9.023 0.268 27.264 0.492 37.584 0.492 49.071 0 88.598-6.439 114.083-17.652 18.318-8.060 24.452-15.357 24.452-21.732 0-6.368-6.213-13.755-24.606-21.875-25.139-11.099-63.826-17.555-111.656-17.751l-5.507 0.002-5.671 0.033c-11.959 0.091-26.912 0.331-32.219 0.586l-0.777 0.042c-0.445 0.027-0.89 0.046-1.335 0.058l-157.292 4.185c-0.349 0.009-0.698 0.014-1.047 0.014-4.658 0-9.62-0.732-14.174-2.003-3.139-0.876-6.238-2.033-9.402-3.677-4.938-2.565-9.481-5.918-13.439-10.825l-0.735-0.938-303.345-367.821zM406.022 9.181c-0.345-0.418-0.681-0.843-1.008-1.276 2.563 3.383 6.265 5.678 10.374 6.495l0.167 0.368h-4.924l-4.608-5.588zM89.326 288.181l0.458 1.644-1.67-2.059-0.906-1.069c-0.175-0.199-0.315-0.352-0.428-0.467l0.24 0.229 0.363 0.315c0.142 0.118 0.305 0.25 0.49 0.393 0.448 0.346 0.934 0.687 1.452 1.014zM415.563 881.231l-0.235 0.518c-3.844 0.927-7.287 3.159-9.708 6.364 0.327-0.433 0.664-0.86 1.008-1.279l4.608-5.603h4.326z" />
<glyph unicode="&#xe908;" glyph-name="airplane-sharp" horiz-adv-x="1184" d="M966.695 566.154c-6.695 0-35.545-0.197-45.957-0.763l-142.203-3.742-327.926 398.351h-154.609l183.606-405.194-239.532-3.545-108.997 133.046h-128.271l50.732-231.828c0.369-1.329 0.812-2.634 1.305-3.914 0.036-0.12 0.036-0.249 0-0.369-0.505-1.272-0.94-2.57-1.305-3.889l-51.422-232.615h127.458l111.877 135.385 238.203-5.342-183.68-405.735h155.077l327.385 398.154 142.203-3.791c10.56-0.566 39.385-0.763 45.932-0.763 59.938 0 108.972 8.222 145.748 24.468 62.375 27.471 71.68 70.646 71.68 93.932 0 73.994-81.231 118.154-217.305 118.154z" />
<glyph unicode="&#xe909;" glyph-name="airplane" horiz-adv-x="1182" d="M419.988-64h-65.526c-13.378 0-25.84 6.8-33.089 18.044s-8.294 25.399-2.776 37.587l158.671 350.154-238.252 5.292-86.892-105.28c-16.566-20.825-29.785-30.105-63.508-30.105h-44.111c-14.174-0.456-27.68 6.030-36.185 17.378-5.858 7.902-11.618 21.292-6.006 40.394l48.788 174.769c0.369 1.305 0.812 2.609 1.305 3.889 0.025 0.122 0.025 0.247 0 0.369-0.508 1.279-0.944 2.586-1.305 3.914l-48.837 175.877c-5.292 18.732 0.492 31.828 6.302 39.532 7.911 10.497 20.334 16.617 33.477 16.492h46.572c25.182 0 49.625-11.298 64-29.538l85.095-103.508 239.557 3.545-158.622 349.538c-5.526 12.182-4.492 26.335 2.747 37.584s19.692 18.054 33.068 18.072h66.24c18.72-0.376 36.25-9.255 47.631-24.123l307.815-374.154 142.203 3.742c10.412 0.566 39.262 0.763 45.932 0.763 136.025-0.074 217.255-44.234 217.255-118.228 0-23.286-9.305-66.462-71.557-93.932-36.751-16.246-85.785-24.468-145.748-24.468-6.597 0-35.372 0.197-45.932 0.763l-142.178 3.791-308.578-374.154c-11.389-14.802-28.884-23.631-47.557-24z" />
<glyph unicode="&#xe90a;" glyph-name="alarm-outline" horiz-adv-x="1109" d="M1024.187 405.333c0 259.206-210.128 469.333-469.333 469.333s-469.333-210.128-469.333-469.333c0-259.206 210.128-469.333 469.333-469.333 124.475 0 243.852 49.447 331.869 137.465s137.465 207.394 137.465 331.869zM938.853 405.333c0-101.843-40.457-199.515-112.471-271.529s-169.686-112.471-271.529-112.471c-212.077 0-384 171.923-384 384s171.923 384 384 384c212.077 0 384-171.923 384-384zM36.17 685.085l2.098-2.663c9.41-12.084 23.455-19.685 38.734-20.944l1.75-0.144h4.484l0.382 0.007c14.343 0.257 27.844 6.503 37.31 17.091l161.093 158.236c11.115 11.241 17.064 26.593 16.426 42.389-0.54 15.498-7.607 30.296-19.5 40.613l-0.218 0.188c-29.596 25.326-67.093 39.505-106.002 40.123l-2.568 0.023-8.826-0.253-0.672-0.040c-91.107-5.491-160.717-84.232-160.474-178.486 0-22.575 4.018-41.815 12.272-59.55 5.882-12.638 11.82-21.431 23.712-36.589zM223.028 855.21c-6.008 5.212-9.578 12.687-9.855 20.636-0.308 7.61 2.647 15.236 8.168 20.82l20.266-20.039-18.579-21.417zM194.982 870.782l-107.848-105.932c-1.251 4.739-1.614 9.802-1.614 16.483-0.129 50.007 35.15 90.137 79.675 93.159l5.907 0.169c8.168-0.103 16.211-1.427 23.88-3.879zM80.507 746.595c0.526 0.034 1.054 0.056 1.583 0.065l0.345-19.268 0.419 5.078v14.197h-2.347v-0.072zM827.534 836.445l-1.044 1.074c-10.585 11.158-16.225 26.131-15.611 41.302 0.549 15.735 7.616 30.532 19.509 40.849l1.634 1.386c29.372 24.575 66.296 38.317 104.587 38.925l2.568 0.023 8.826-0.253 0.672-0.040c91.107-5.491 160.717-84.232 160.475-178.376 0-22.686-4.018-41.925-12.273-59.66-5.717-12.284-11.488-20.936-22.729-35.332l-3.107-3.951c-9.433-12.078-23.498-19.659-38.785-20.892l-1.711-0.138h-4.064l-0.763 0.007c-13.965 0.25-27.132 6.177-36.553 16.262l-0.756 0.827-160.874 157.989zM914.355 870.783l107.843-105.909c1.252 4.757 1.616 9.847 1.616 16.57 0.129 49.897-35.15 90.027-79.675 93.049l-5.907 0.169c-7.583-0.095-15.059-1.244-22.228-3.37l-1.649-0.508zM1026.48 746.693h2.347v-0.072c-0.526 0.034-1.054 0.056-1.583 0.065l-0.337-18.836-0.426 5.288v13.555zM886.306 855.21c6.008 5.212 9.578 12.687 9.846 20.4 0.317 7.846-2.638 15.472-8.159 21.056l-20.266-20.039 18.579-21.417zM341.52 448c-23.564 0-42.667-19.103-42.667-42.667s19.103-42.667 42.667-42.667h213.333c23.564 0 42.667 19.103 42.667 42.667v298.667c0 23.564-19.103 42.667-42.667 42.667s-42.667-19.103-42.667-42.667v-256h-170.667zM1011.69 8.837l-106.667 106.667c-16.662 16.662-43.677 16.662-60.34 0s-16.662-43.677 0-60.34l106.667-106.667c16.662-16.662 43.677-16.662 60.34 0s16.662 43.677 0 60.34zM158.357-51.503l106.667 106.667c16.662 16.662 16.662 43.677 0 60.34s-43.677 16.662-60.34 0l-106.667-106.667c-16.662-16.662-16.662-43.677 0-60.34s43.677-16.662 60.34 0z" />
<glyph unicode="&#xe90b;" glyph-name="alarm-sharp" horiz-adv-x="1089" d="M931.788 959.712l-8.564 0.262h-1.362c-38.577 0-74.77-15.478-106.119-39.284s-40.541-44.496-40.541-44.496l230.465-225.228c0 0 29.463 14.954 46.119 36.272s37.398 47.35 37.503 97.188c0.183 92.946-68.957 169.942-157.503 175.285zM157.686 959.712l8.564 0.262h1.362c38.577 0 74.77-15.478 106.119-39.284s40.541-44.496 40.541-44.496l-230.465-225.228c0 0-29.463 14.954-46.119 36.272s-37.398 47.35-37.503 97.293c-0.183 92.841 68.957 169.837 157.503 175.18zM899.077 120.372c-0.053 0.060-0.053 0.15 0 0.21 88.258 106.119 130.161 252.15 93.496 406.693-35.722 150.641-190.317 302.984-341.351 336.951-300.286 67.516-567.233-160.121-567.233-448.962-0.105-107.72 37.703-212.042 106.8-294.682 0.053-0.060 0.053-0.15 0-0.21l-125.316-124.137c-0.053-0.060-0.053-0.15 0-0.21l60.235-58.952c0.060-0.053 0.15-0.053 0.21 0l124.216 124.059c0.060 0.053 0.15 0.053 0.21 0 170.661-142.396 418.728-142.396 589.389 0l124.032-124.059c0.060-0.053 0.15-0.053 0.21 0l62.645 59.162-127.542 124.137zM586.823 373.361h-293.32v83.544h209.514v293.582h83.806v-377.125z" />
<glyph unicode="&#xe90c;" glyph-name="alarm" horiz-adv-x="1106" d="M280.842 836.428c11.304 11.187 17.416 26.591 16.855 42.484s-7.743 30.829-19.807 41.191v0c-30.031 25.63-68.185 39.768-107.666 39.896l-8.697-0.239h-1.277c-90.032-5.479-160.249-83.675-160.064-177.963 0-50.535 21.278-77.292 38.088-98.703 9.537-12.103 23.729-19.633 39.098-20.746 0.692 0 1.862-0.133 5.319-0.133 13.816 0.020 27.025 5.679 36.571 15.666l161.579 158.547zM946.309 959.707l-8.697 0.266h-1.383c-39.518-0.103-77.714-14.243-107.773-39.896-12.047-10.361-19.218-25.285-19.778-41.165s5.539-31.272 16.826-42.457l161.632-158.654c9.567-10.024 22.821-15.692 36.678-15.692 3.404 0 4.575 0 5.319 0.133 15.36 1.12 29.54 8.649 39.072 20.746 16.916 21.411 37.981 48.088 38.088 98.703 0.159 94.394-70.058 172.591-159.984 178.016zM553.412 874.888c-257.995 0-468.114-209.986-468.114-468.114-0.091-109.442 38.334-215.426 108.544-299.38l-96.070-96.096c-11.011-10.698-15.406-26.497-11.501-41.345s15.503-26.441 30.352-30.338c14.849-3.898 30.646 0.504 41.339 11.52l96.070 96.070c173.35-144.729 425.411-144.729 598.761 0l96.096-96.070c10.693-11.015 26.491-15.417 41.339-11.52s26.447 15.491 30.352 30.338c3.904 14.847-0.491 30.646-11.501 41.345l-96.096 96.096c70.222 83.947 108.649 189.936 108.544 299.38 0 257.995-209.986 468.114-468.114 468.114zM595.968 406.774c0-23.503-19.053-42.556-42.556-42.556h-212.779c-23.503 0-42.556 19.053-42.556 42.556s19.053 42.556 42.556 42.556h170.223v255.335c0 23.503 19.053 42.556 42.556 42.556s42.556-19.053 42.556-42.556v-297.891z" />
<glyph unicode="&#xe90d;" glyph-name="albums-outline" horiz-adv-x="1109" d="M119.653 704h870.027c66.083 0 119.653-53.571 119.653-119.653v-528.693c0-66.083-53.571-119.653-119.653-119.653h-870.027c-66.083 0-119.653 53.571-119.653 119.653v528.693c0 66.083 53.571 119.653 119.653 119.653zM119.653 618.667c-18.954 0-34.32-15.366-34.32-34.32v-528.693c0-18.954 15.366-34.32 34.32-34.32h870.027c18.954 0 34.32 15.366 34.32 34.32v528.693c0 18.954-15.366 34.32-34.32 34.32h-870.027zM256 874.667h597.333c23.564 0 42.667 19.103 42.667 42.667s-19.103 42.667-42.667 42.667h-597.333c-23.564 0-42.667-19.103-42.667-42.667s19.103-42.667 42.667-42.667zM170.667 746.667h768c23.564 0 42.667 19.103 42.667 42.667s-19.103 42.667-42.667 42.667h-768c-23.564 0-42.667-19.103-42.667-42.667s19.103-42.667 42.667-42.667z" />
<glyph unicode="&#xe90e;" glyph-name="albums-sharp" horiz-adv-x="1109" d="M213.333 960h682.667v-85.333h-682.667v85.333zM128 832h853.333v-85.333h-853.333v85.333zM1109.333-64h-1109.333v768h1109.333z" />
<glyph unicode="&#xe90f;" glyph-name="albums" horiz-adv-x="1109" d="M853.333 874.667h-597.333c-23.564 0-42.667 19.103-42.667 42.667s19.103 42.667 42.667 42.667h597.333c23.564 0 42.667-19.103 42.667-42.667s-19.103-42.667-42.667-42.667zM938.667 746.667h-768c-23.564 0-42.667 19.103-42.667 42.667s19.103 42.667 42.667 42.667h768c23.564 0 42.667-19.103 42.667-42.667s-19.103-42.667-42.667-42.667zM989.68-64h-870.027c-66.052 0.073-119.58 53.601-119.653 119.653v528.693c0.073 66.052 53.601 119.58 119.653 119.653h870.027c66.052-0.073 119.58-53.601 119.653-119.653v-528.693c-0.073-66.052-53.601-119.58-119.653-119.653v0z" />
<glyph unicode="&#xe910;" glyph-name="alert-circle-outline" d="M1024 448c0 282.675-229.325 512-512 512s-512-229.325-512-512c0-282.675 229.325-512 512-512s512 229.325 512 512zM945.231 448c0-239.172-194.059-433.231-433.231-433.231s-433.231 194.059-433.231 433.231c0 239.172 194.059 433.231 433.231 433.231s433.231-194.059 433.231-433.231zM458.53 667.564l14.129-300.185c2.356-50.046 76.331-50.043 78.682 0.003l14.105 300.185c0.67 14.752-4.737 29.068-14.948 39.649-10.209 10.58-24.321 16.493-39.022 16.354-14.524-0.142-28.367-6.177-38.352-16.725-9.737-10.285-14.989-23.999-14.635-38.128l0.041-1.154zM537.215 671.201c0.311-6.849-2.176-13.529-6.889-18.508-4.712-4.977-11.244-7.825-18.096-7.891-6.937-0.066-13.596 2.724-18.414 7.716-4.819 4.994-7.371 11.75-7.056 18.683l-14.102-300.122 78.682 0.003-14.126 300.119zM512 172.529c-27.189 0-49.231 22.041-49.231 49.231s22.041 49.231 49.231 49.231c27.189 0 49.231-22.041 49.231-49.231s-22.041-49.231-49.231-49.231z" />
<glyph unicode="&#xe911;" glyph-name="alert-circle-sharp" d="M512 960c-282.314 0-512-229.686-512-512s229.686-512 512-512c282.314 0 512 229.686 512 512s-229.686 512-512 512zM561.231 172.529h-98.462v98.462h98.462v-98.462zM551.385 329.846h-78.769l-14.769 393.846h108.308l-14.769-393.846z" />
<glyph unicode="&#xe912;" glyph-name="alert-circle" d="M512 960c-282.314 0-512-229.686-512-512s229.686-512 512-512c282.314 0 512 229.686 512 512s-229.686 512-512 512zM512 172.529c-27.189 0-49.231 22.041-49.231 49.231s22.041 49.231 49.231 49.231c27.189 0 49.231-22.041 49.231-49.231s-22.041-49.231-49.231-49.231zM565.465 667.668l-14.129-300.308c0-21.752-17.633-39.385-39.385-39.385s-39.385 17.633-39.385 39.385l-14.129 300.16v0.123c-0.843 19.648 9.158 38.176 26.048 48.252s37.944 10.076 54.834 0c16.889-10.076 26.891-28.604 26.048-48.252l0.098 0.025z" />
<glyph unicode="&#xe913;" glyph-name="alert-outline" horiz-adv-x="171" d="M21.341 297.673c0.531-34.888 28.978-63.006 63.992-63.006s63.461 28.118 63.992 63.006l21.292 574.896c2.752 47.793-38.085 87.432-85.285 87.432-46.728 0-87.219-38.85-85.354-86l0.070-1.431 21.292-574.896zM85.303 874.632l0.039 0.030c-0.027 0.004-0.014-0.008 0.022-0.030l-0.031 0.824-0.031-0.824zM85.333-64c47.128 0 85.333 38.205 85.333 85.333s-38.205 85.333-85.333 85.333c-47.128 0-85.333-38.205-85.333-85.333s38.205-85.333 85.333-85.333z" />
<glyph unicode="&#xe914;" glyph-name="alert-sharp" horiz-adv-x="176" d="M174.779 960h-173.559l24.178-725.333h125.203l24.178 725.333zM86.554 874.667h2.892l-1.446 43.378-1.446-43.378zM68.022 318.69l19.978-19.324 19.978 19.324-0.044 1.31h-39.87l-0.044-1.31zM173.333 106.667v-170.667h-170.667v170.667z" />
<glyph unicode="&#xe915;" glyph-name="alert" horiz-adv-x="171" d="M21.341 297.673c0.531-34.888 28.978-63.006 63.992-63.006s63.461 28.118 63.992 63.006l21.292 574.896c2.752 47.793-38.085 87.432-85.285 87.432-46.728 0-87.219-38.85-85.354-86l0.070-1.431 21.292-574.896zM85.303 874.632l0.039 0.030c-0.027 0.004-0.014-0.008 0.022-0.030l-0.031 0.824-0.031-0.824zM85.333-64c47.128 0 85.333 38.205 85.333 85.333s-38.205 85.333-85.333 85.333c-47.128 0-85.333-38.205-85.333-85.333s38.205-85.333 85.333-85.333z" />
<glyph unicode="&#xe916;" glyph-name="american-football-outline" d="M795.405 164.593c232.679 232.679 300.066 548.391 140.821 707.636s-474.957 91.858-707.636-140.821c-232.679-232.679-300.066-548.391-140.821-707.636s474.957-91.858 707.636 140.821zM747.532 212.465c-209.471-209.471-484.531-268.18-611.89-140.821s-68.65 402.419 140.821 611.89c209.471 209.471 484.531 268.18 611.89 140.821s68.65-402.419-140.821-611.89zM653.173 637.046l-330.219-330.219c-13.22-13.22-13.22-34.653 0-47.873s34.653-13.22 47.873 0l330.219 330.219c13.22 13.22 13.22 34.653 0 47.873s-34.653 13.22-47.873 0zM583.117 424.756l-94.36 94.36c-13.22 13.22-34.653 13.22-47.873 0s-13.22-34.653 0-47.873l94.36-94.36c13.22-13.22 34.653-13.22 47.873 0s13.22 34.653 0 47.873zM677.456 519.117l-94.339 94.339c-13.22 13.22-34.653 13.22-47.873 0s-13.22-34.653 0-47.873l94.339-94.339c13.22-13.22 34.653-13.22 47.873 0s13.22 34.653 0 47.873zM960.516 566.297l-330.219 330.219c-13.22 13.22-34.653 13.22-47.873 0s-13.22-34.653 0-47.873l330.219-330.219c13.22-13.22 34.653-13.22 47.873 0s13.22 34.653 0 47.873zM441.576 47.357l-330.219 330.219c-13.22 13.22-34.653 13.22-47.873 0s-13.22-34.653 0-47.873l330.219-330.219c13.22-13.22 34.653-13.22 47.873 0s13.22 34.653 0 47.873zM488.756 330.417l-94.339 94.339c-13.22 13.22-34.653 13.22-47.873 0s-13.22-34.653 0-47.873l94.339-94.339c13.22-13.22 34.653-13.22 47.873 0s13.22 34.653 0 47.873z" />
<glyph unicode="&#xe917;" glyph-name="american-football-sharp" d="M203.2 757.691c-102.286-101.851-153.806-230.971-179.749-333.486l462.423-460.434c102.971 25.829 232.64 77.12 334.926 178.971s153.806 230.971 179.749 333.509l-462.423 460.411c-102.971-25.829-232.64-77.234-334.926-178.971zM692.343 680.823l51.474-51.246-77.211-76.869 51.474-51.246-51.68-51.177-51.543 51.177-51.383-51.177 51.383-51.314-51.451-51.246-51.406 51.246-51.474-51.246 51.474-51.246-51.474-51.246-51.383 51.246-77.211-76.869-51.543 51.246 77.211 76.869-51.474 51.246 51.474 51.314 51.543-51.314 51.383 51.314-51.383 51.177 51.451 51.246 51.406-51.246 51.474 51.246-51.474 51.246 51.474 51.246 51.383-51.246 77.486 76.869zM1020.526 579.634c16.846 125.166-33.097 343.68-33.097 343.68s-219.749 50.011-345.463 33.234c-5.806-0.754-11.909-1.646-18.286-2.606l394.217-392.48c0.983 6.309 1.851 12.389 2.629 18.171zM3.474 320.8c-16.846-125.166 33.211-348.229 33.211-348.229s137.143-36.571 228.251-36.571c39.163 0.066 78.279 2.7 117.097 7.886 5.806 0.754 11.909 1.646 18.286 2.629l-394.217 392.457c-0.983-6.309-1.851-12.389-2.629-18.171z" />
<glyph unicode="&#xe918;" glyph-name="american-football" d="M205.851 754.149c-101.417-101.417-152.48-229.966-178.286-332.069l458.514-458.423c102.103 25.714 230.651 76.777 332.069 178.286s152.48 229.966 178.286 332.069l-458.514 458.331c-102.103-25.714-230.651-76.777-332.069-178.194zM614.057 601.143l51.086 50.949c14.249 12.928 36.136 12.397 49.741-1.208s14.136-35.492 1.208-49.741l-50.949-51.086 25.509-25.531c14.088-14.088 14.088-36.929 0-51.017s-36.929-14.088-51.017 0l-25.509 25.509-51.109-51.017 25.509-25.509c14.088-14.088 14.088-36.929 0-51.017s-36.929-14.088-51.017 0l-25.509 25.509-51.017-51.040 25.509-25.509c9.113-9.113 12.672-22.396 9.337-34.845s-13.060-22.173-25.509-25.509c-12.449-3.336-25.732 0.223-34.845 9.337l-25.531 25.44-51.086-50.949c-14.249-12.928-36.136-12.397-49.741 1.208s-14.136 35.492-1.208 49.741l50.949 51.086-25.509 25.531c-14.088 14.088-14.088 36.929 0 51.017s36.929 14.088 51.017 0l25.509-25.509 51.109 51.017-25.509 25.509c-9.113 9.113-12.672 22.396-9.337 34.845s13.060 22.173 25.509 25.509c12.449 3.336 25.732-0.223 34.845-9.337l25.509-25.509 51.017 51.040-25.509 25.509c-14.088 14.088-14.088 36.929 0 51.017s36.929 14.088 51.017 0l25.531-25.44zM1016.16 576.846c16.709 124.64 9.143 274.88-45.714 329.623s-204.983 62.4-329.623 45.714c-5.737-0.777-11.794-1.646-18.080-2.629l390.857-390.857c0.914 6.354 1.783 12.411 2.56 18.149zM7.84 319.154c-16.709-124.64-9.143-274.88 45.714-329.623 38.263-38.286 123.223-53.531 213.509-53.531 38.827 0.063 77.608 2.682 116.091 7.84 5.737 0.777 11.794 1.646 18.080 2.629l-390.857 390.857c-0.891-6.377-1.76-12.434-2.537-18.171z" />
<glyph unicode="&#xe919;" glyph-name="analytics-outline" horiz-adv-x="1392" d="M984.015 345.589l255.203 255.203c18.119 18.119 18.119 47.499 0 65.622s-47.499 18.119-65.622 0l-255.203-255.203c-18.119-18.119-18.119-47.499 0-65.622s47.499-18.119 65.622 0zM593.59 531.192l185.603-185.603c18.119-18.119 47.499-18.119 65.622 0s18.119 47.499 0 65.622l-185.603 185.603c-18.119 18.119-47.499 18.119-65.622 0s-18.119-47.499 0-65.622zM218.406 229.587l301.603 301.603c18.119 18.119 18.119 47.499 0 65.622s-47.499 18.119-65.622 0l-301.603-301.603c-18.119-18.119-18.119-47.499 0-65.622s47.499-18.119 65.622 0zM1276.009 587.202c64.066 0 116.001 51.936 116.001 116.001s-51.936 116.001-116.001 116.001c-64.066 0-116.001-51.936-116.001-116.001s51.936-116.001 116.001-116.001zM1276.009 680.003c-12.814 0-23.2 10.386-23.2 23.2s10.386 23.2 23.2 23.2c12.814 0 23.2-10.386 23.2-23.2s-10.386-23.2-23.2-23.2zM881.604 192.797c64.066 0 116.001 51.936 116.001 116.001s-51.936 116.001-116.001 116.001c-64.066 0-116.001-51.936-116.001-116.001s51.936-116.001 116.001-116.001zM881.604 285.598c-12.814 0-23.2 10.386-23.2 23.2s10.386 23.2 23.2 23.2c12.814 0 23.2-10.386 23.2-23.2s-10.386-23.2-23.2-23.2zM556.8 517.601c64.066 0 116.001 51.936 116.001 116.001s-51.936 116.001-116.001 116.001c-64.066 0-116.001-51.936-116.001-116.001s51.936-116.001 116.001-116.001zM556.8 610.402c-12.814 0-23.2 10.386-23.2 23.2s10.386 23.2 23.2 23.2c12.814 0 23.2-10.386 23.2-23.2s-10.386-23.2-23.2-23.2zM115.994 76.795c64.066 0 116.001 51.936 116.001 116.001s-51.936 116.001-116.001 116.001c-64.066 0-116.001-51.936-116.001-116.001s51.936-116.001 116.001-116.001zM115.994 169.597c-12.814 0-23.2 10.386-23.2 23.2s10.386 23.2 23.2 23.2c12.814 0 23.2-10.386 23.2-23.2s-10.386-23.2-23.2-23.2z" />
<glyph unicode="&#xe91a;" glyph-name="analytics" horiz-adv-x="1440" d="M1319.937 831.991c-39.665-0.011-76.762-19.622-99.108-52.394s-27.053-74.468-12.575-111.397l-252.496-252.496c-28.148 11.080-59.448 11.080-87.595 0l-180.499 180.499c19.66 50.041 3.632 107.050-39.22 139.518s-102.073 32.468-144.926 0c-42.854-32.468-58.88-89.477-39.22-139.518l-300.493-300.493c-52.896 20.75-113.094 1.554-144.215-45.985s-24.63-110.391 15.548-150.568c40.178-40.178 103.029-46.668 150.568-15.548s66.735 91.319 45.985 144.215l300.493 300.493c28.148-11.080 59.448-11.080 87.595 0l180.499-180.499c-19.66-50.041-3.632-107.050 39.22-139.518s102.073-32.468 144.926 0c42.854 32.468 58.88 89.477 39.22 139.518l252.496 252.496c44.932-17.652 96.067-6.659 129.775 27.899s43.423 85.951 24.657 130.429c-18.766 44.478-62.359 73.38-110.635 73.348z" />
<glyph unicode="&#xe91b;" glyph-name="aperture-outline" d="M1024 448c0 282.675-229.325 512-512 512s-512-229.325-512-512c0-282.675 229.325-512 512-512s512 229.325 512 512zM945.231 448c0-239.172-194.059-433.231-433.231-433.231s-433.231 194.059-433.231 433.231c0 239.172 194.059 433.231 433.231 433.231s433.231-194.059 433.231-433.231zM728.615 845.317v-495.778c0-21.752 17.633-39.385 39.385-39.385s39.385 17.633 39.385 39.385v495.778c0 21.752-17.633 39.385-39.385 39.385s-39.385-17.633-39.385-39.385zM944.779 582.015l-362.166-362.166c-15.381-15.381-15.381-40.318 0-55.698s40.318-15.381 55.698 0l362.166 362.166c15.381 15.381 15.381 40.318 0 55.698s-40.318 15.381-55.698 0zM909.317 231.385h-495.778c-21.752 0-39.385-17.633-39.385-39.385s17.633-39.385 39.385-39.385h495.778c21.752 0 39.385 17.633 39.385 39.385s-17.633 39.385-39.385 39.385zM646.015 15.221l-354.462 354.462c-15.381 15.381-40.318 15.381-55.698 0s-15.381-40.318 0-55.698l354.462-354.462c15.381-15.381 40.318-15.381 55.698 0s15.381 40.318 0 55.698zM295.385 54.154v492.308c0 21.752-17.633 39.385-39.385 39.385s-39.385-17.633-39.385-39.385v-492.308c0-21.752 17.633-39.385 39.385-39.385s39.385 17.633 39.385 39.385zM79.221 313.985l354.462 354.462c15.381 15.381 15.381 40.318 0 55.698s-40.318 15.381-55.698 0l-354.462-354.462c-15.381-15.381-15.381-40.318 0-55.698s40.318-15.381 55.698 0zM114.683 664.615h476.086c21.752 0 39.385 17.633 39.385 39.385s-17.633 39.385-39.385 39.385h-476.086c-21.752 0-39.385-17.633-39.385-39.385s17.633-39.385 39.385-39.385zM377.985 880.779l362.166-362.166c15.381-15.381 40.318-15.381 55.698 0s15.381 40.318 0 55.698l-362.166 362.166c-15.381 15.381-40.318 15.381-55.698 0s-15.381-40.318 0-55.698z" />
<glyph unicode="&#xe91c;" glyph-name="aperture-sharp" d="M413.538 960l318.745-315.52v315.52zM328.542 934.449l-249.772-186.142h433.231zM708.923 231.385h315.077v315.077zM999.385 630.154l-187.077 251.077v-433.231zM0 669.538v-315.077l315.077 315.077zM694.154-39.385l251.077 187.077h-433.231zM24.615 265.846l187.077-251.077v433.231zM732.283 531.397l-136.738 136.517h-167.089l-136.738-136.517v-166.794l136.911-136.665c1.083 0 2.166 0.148 3.274 0.148h163.643l136.738 136.517v166.794zM290.412 250.855l0.049-314.855h315.077z" />
<glyph unicode="&#xe91d;" glyph-name="aperture" d="M498.56 760.197l-166.892 166.892c-95.566-36.369-178.175-100.309-237.342-183.705h397.292c3.98 0.007 7.565 2.409 9.084 6.089s0.674 7.911-2.143 10.724zM294.695 664.615h-246.375c-45.323-96.606-59.226-204.989-39.754-309.908l293.071 293.095c2.816 2.813 3.662 7.045 2.143 10.724s-5.104 6.082-9.084 6.089v0zM728.615 665.305v246.548c-96.64 45.183-204.988 59.022-309.883 39.582l293.071-293.071c2.813-2.816 7.045-3.662 10.724-2.143s6.082 5.104 6.089 9.084zM1015.434 541.292l-293.071-293.095c-2.816-2.813-3.662-7.045-2.143-10.724s5.104-6.082 9.084-6.089h246.375c45.323 96.606 59.226 204.989 39.754 309.908v0zM824.197 461.44l166.966 166.942c-36.272 95.708-100.257 178.428-183.778 237.588v-397.588c0.007-3.98 2.409-7.565 6.089-9.084s7.911-0.674 10.724 2.143zM427.52 236.874c3.667-3.521 8.553-5.489 13.637-5.489h146.855c5.276 0 10.331 2.122 14.031 5.883l121.058 123.077c3.632 3.688 5.662 8.658 5.662 13.834l-0.148 149.686c-0.002 5.264-2.112 10.308-5.858 14.006l-123.077 121.231c-3.694 3.638-8.674 5.672-13.858 5.662l-149.76-0.148c-5.264-0.002-10.308-2.112-14.006-5.858l-121.231-123.077c-3.638-3.694-5.672-8.674-5.662-13.858l0.148-149.612c0.001-5.349 2.178-10.468 6.031-14.178l126.178-121.157zM525.44 135.803l166.892-166.892c95.566 36.369 178.175 100.309 237.342 183.705h-397.292c-3.98-0.007-7.565-2.409-9.084-6.089s-0.674-7.911 2.143-10.724zM295.385 230.695v-246.548c96.64-45.183 204.988-59.022 309.883-39.582l-293.071 293.071c-2.813 2.816-7.045 3.662-10.724 2.143s-6.082-5.104-6.089-9.084v0zM199.803 434.56l-166.966-166.966c36.279-95.698 100.263-178.408 183.778-237.563v397.588c-0.007 3.98-2.409 7.565-6.089 9.084s-7.911 0.674-10.724-2.143z" />
<glyph unicode="&#xe91e;" glyph-name="apps-outline" d="M137.846 960c76.13 0 137.846-61.716 137.846-137.846s-61.716-137.846-137.846-137.846c-76.13 0-137.846 61.716-137.846 137.846s61.716 137.846 137.846 137.846zM137.846 881.231c-32.627 0-59.077-26.45-59.077-59.077s26.45-59.077 59.077-59.077c32.627 0 59.077 26.45 59.077 59.077s-26.45 59.077-59.077 59.077zM512 960c76.13 0 137.846-61.716 137.846-137.846s-61.716-137.846-137.846-137.846c-76.13 0-137.846 61.716-137.846 137.846s61.716 137.846 137.846 137.846zM512 881.231c-32.627 0-59.077-26.45-59.077-59.077s26.45-59.077 59.077-59.077c32.627 0 59.077 26.45 59.077 59.077s-26.45 59.077-59.077 59.077zM886.154 960c76.13 0 137.846-61.716 137.846-137.846s-61.716-137.846-137.846-137.846c-76.13 0-137.846 61.716-137.846 137.846s61.716 137.846 137.846 137.846zM886.154 881.231c-32.627 0-59.077-26.45-59.077-59.077s26.45-59.077 59.077-59.077c32.627 0 59.077 26.45 59.077 59.077s-26.45 59.077-59.077 59.077zM137.846 585.846c76.13 0 137.846-61.716 137.846-137.846s-61.716-137.846-137.846-137.846c-76.13 0-137.846 61.716-137.846 137.846s61.716 137.846 137.846 137.846zM137.846 507.077c-32.627 0-59.077-26.45-59.077-59.077s26.45-59.077 59.077-59.077c32.627 0 59.077 26.45 59.077 59.077s-26.45 59.077-59.077 59.077zM512 585.846c76.13 0 137.846-61.716 137.846-137.846s-61.716-137.846-137.846-137.846c-76.13 0-137.846 61.716-137.846 137.846s61.716 137.846 137.846 137.846zM512 507.077c-32.627 0-59.077-26.45-59.077-59.077s26.45-59.077 59.077-59.077c32.627 0 59.077 26.45 59.077 59.077s-26.45 59.077-59.077 59.077zM886.154 585.846c76.13 0 137.846-61.716 137.846-137.846s-61.716-137.846-137.846-137.846c-76.13 0-137.846 61.716-137.846 137.846s61.716 137.846 137.846 137.846zM886.154 507.077c-32.627 0-59.077-26.45-59.077-59.077s26.45-59.077 59.077-59.077c32.627 0 59.077 26.45 59.077 59.077s-26.45 59.077-59.077 59.077zM137.846 211.692c76.13 0 137.846-61.716 137.846-137.846s-61.716-137.846-137.846-137.846c-76.13 0-137.846 61.716-137.846 137.846s61.716 137.846 137.846 137.846zM137.846 132.923c-32.627 0-59.077-26.45-59.077-59.077s26.45-59.077 59.077-59.077c32.627 0 59.077 26.45 59.077 59.077s-26.45 59.077-59.077 59.077zM512 211.692c76.13 0 137.846-61.716 137.846-137.846s-61.716-137.846-137.846-137.846c-76.13 0-137.846 61.716-137.846 137.846s61.716 137.846 137.846 137.846zM512 132.923c-32.627 0-59.077-26.45-59.077-59.077s26.45-59.077 59.077-59.077c32.627 0 59.077 26.45 59.077 59.077s-26.45 59.077-59.077 59.077zM886.154 211.692c76.13 0 137.846-61.716 137.846-137.846s-61.716-137.846-137.846-137.846c-76.13 0-137.846 61.716-137.846 137.846s61.716 137.846 137.846 137.846zM886.154 132.923c-32.627 0-59.077-26.45-59.077-59.077s26.45-59.077 59.077-59.077c32.627 0 59.077 26.45 59.077 59.077s-26.45 59.077-59.077 59.077z" />
<glyph unicode="&#xe91f;" glyph-name="apps-sharp" d="M19.692 960h236.308c10.876 0 19.692-8.817 19.692-19.692v-236.308c0-10.876-8.817-19.692-19.692-19.692h-236.308c-10.876 0-19.692 8.817-19.692 19.692v236.308c0 10.876 8.817 19.692 19.692 19.692zM393.846 960h236.308c10.876 0 19.692-8.817 19.692-19.692v-236.308c0-10.876-8.817-19.692-19.692-19.692h-236.308c-10.876 0-19.692 8.817-19.692 19.692v236.308c0 10.876 8.817 19.692 19.692 19.692zM768 960h236.308c10.876 0 19.692-8.817 19.692-19.692v-236.308c0-10.876-8.817-19.692-19.692-19.692h-236.308c-10.876 0-19.692 8.817-19.692 19.692v236.308c0 10.876 8.817 19.692 19.692 19.692zM19.692 585.846h236.308c10.876 0 19.692-8.817 19.692-19.692v-236.308c0-10.876-8.817-19.692-19.692-19.692h-236.308c-10.876 0-19.692 8.817-19.692 19.692v236.308c0 10.876 8.817 19.692 19.692 19.692zM393.846 585.846h236.308c10.876 0 19.692-8.817 19.692-19.692v-236.308c0-10.876-8.817-19.692-19.692-19.692h-236.308c-10.876 0-19.692 8.817-19.692 19.692v236.308c0 10.876 8.817 19.692 19.692 19.692zM768 585.846h236.308c10.876 0 19.692-8.817 19.692-19.692v-236.308c0-10.876-8.817-19.692-19.692-19.692h-236.308c-10.876 0-19.692 8.817-19.692 19.692v236.308c0 10.876 8.817 19.692 19.692 19.692zM19.692 211.692h236.308c10.876 0 19.692-8.817 19.692-19.692v-236.308c0-10.876-8.817-19.692-19.692-19.692h-236.308c-10.876 0-19.692 8.817-19.692 19.692v236.308c0 10.876 8.817 19.692 19.692 19.692zM393.846 211.692h236.308c10.876 0 19.692-8.817 19.692-19.692v-236.308c0-10.876-8.817-19.692-19.692-19.692h-236.308c-10.876 0-19.692 8.817-19.692 19.692v236.308c0 10.876 8.817 19.692 19.692 19.692zM768 211.692h236.308c10.876 0 19.692-8.817 19.692-19.692v-236.308c0-10.876-8.817-19.692-19.692-19.692h-236.308c-10.876 0-19.692 8.817-19.692 19.692v236.308c0 10.876 8.817 19.692 19.692 19.692z" />
<glyph unicode="&#xe920;" glyph-name="apps" d="M137.846 684.308c-76.13 0-137.846 61.716-137.846 137.846s61.716 137.846 137.846 137.846c76.13 0 137.846-61.716 137.846-137.846-0.081-76.097-61.75-137.765-137.846-137.846zM512 684.308c-76.13 0-137.846 61.716-137.846 137.846s61.716 137.846 137.846 137.846c76.13 0 137.846-61.716 137.846-137.846-0.081-76.097-61.75-137.765-137.846-137.846zM886.154 684.308c-55.754 0-106.017 33.585-127.353 85.095s-9.542 110.8 29.881 150.223c39.424 39.424 98.714 51.217 150.223 29.881s85.095-71.6 85.095-127.353c-0.081-76.097-61.75-137.765-137.846-137.846zM137.846 310.154c-76.13 0-137.846 61.716-137.846 137.846s61.716 137.846 137.846 137.846c76.13 0 137.846-61.716 137.846-137.846-0.081-76.097-61.75-137.765-137.846-137.846zM512 310.154c-76.13 0-137.846 61.716-137.846 137.846s61.716 137.846 137.846 137.846c76.13 0 137.846-61.716 137.846-137.846-0.081-76.097-61.75-137.765-137.846-137.846zM886.154 310.154c-55.754 0-106.017 33.585-127.353 85.095s-9.542 110.8 29.881 150.223c39.424 39.424 98.714 51.217 150.223 29.881s85.095-71.6 85.095-127.353c-0.081-76.097-61.75-137.765-137.846-137.846zM137.846-64c-55.754 0-106.017 33.585-127.353 85.095s-9.542 110.8 29.881 150.223c39.424 39.424 98.714 51.217 150.223 29.881s85.095-71.6 85.095-127.353c-0.081-76.097-61.75-137.765-137.846-137.846zM512-64c-55.754 0-106.017 33.585-127.353 85.095s-9.542 110.8 29.881 150.223c39.424 39.424 98.714 51.217 150.223 29.881s85.095-71.6 85.095-127.353c-0.081-76.097-61.75-137.765-137.846-137.846zM886.154-64c-55.754 0-106.017 33.585-127.353 85.095s-9.542 110.8 29.881 150.223c39.424 39.424 98.714 51.217 150.223 29.881s85.095-71.6 85.095-127.353c-0.081-76.097-61.75-137.765-137.846-137.846z" />
<glyph unicode="&#xe921;" glyph-name="archive-outline" horiz-adv-x="1103" d="M78.769 704v-630.154c0.227-76.089 61.757-137.619 137.729-137.846h669.656c76.089 0.227 137.619 61.757 137.846 137.729v630.271c0 21.752-17.633 39.385-39.385 39.385s-39.385-17.633-39.385-39.385v-630.154c-0.097-32.534-26.543-58.98-59.195-59.077h-669.421c-32.534 0.097-58.98 26.543-59.077 59.195v630.036c0 21.752-17.633 39.385-39.385 39.385s-39.385-17.633-39.385-39.385zM108.308 960h886.154c59.817 0 108.308-48.491 108.308-108.308v-59.077c0-59.817-48.491-108.308-108.308-108.308h-886.154c-59.817 0-108.308 48.491-108.308 108.308v59.077c0 59.219 47.526 107.337 106.517 108.293l1.791 0.015zM108.308 881.231l-0.751-0.009c-15.967-0.398-28.788-13.466-28.788-29.529v-59.077c0-16.314 13.225-29.538 29.538-29.538h886.154c16.314 0 29.538 13.225 29.538 29.538v59.077c0 16.314-13.225 29.538-29.538 29.538h-886.154zM421.695 357.695c-15.381 15.381-40.318 15.381-55.698 0s-15.381-40.318 0-55.698l157.538-157.538c15.381-15.381 40.318-15.381 55.698 0l157.538 157.538c15.381 15.381 15.381 40.318 0 55.698s-40.318 15.381-55.698 0l-129.689-129.689-129.689 129.689zM590.769 226.732v300.037c0 21.752-17.633 39.385-39.385 39.385s-39.385-17.633-39.385-39.385v-300.037c0-21.752 17.633-39.385 39.385-39.385s39.385 17.633 39.385 39.385z" />
<glyph unicode="&#xe922;" glyph-name="archive-sharp" horiz-adv-x="1103" d="M29.538 960h1043.692c16.314 0 29.538-13.225 29.538-29.538v-137.846c0-16.314-13.225-29.538-29.538-29.538h-1043.692c-16.314 0-29.538 13.225-29.538 29.538v137.846c0 16.314 13.225 29.538 29.538 29.538zM78.769 684.308v-689.231c0-32.627 26.45-59.077 59.077-59.077h827.077c32.627 0 59.077 26.45 59.077 59.077v689.231h-945.231zM551.385 116.603l-213.366 213.243 55.828 55.828 118.154-118.277v298.757h78.769v-298.757l118.326 118.326 55.655-55.729-213.366-213.391z" />
<glyph unicode="&#xe923;" glyph-name="archive" horiz-adv-x="1103" d="M78.769 674.462v-600.615c0-76.13 61.716-137.846 137.846-137.846h669.538c76.13 0 137.846 61.716 137.846 137.846v600.615c0 5.438-4.408 9.846-9.846 9.846h-925.538c-5.438 0-9.846-4.408-9.846-9.846zM736 301.218l-156.775-156.751c-15.379-15.368-40.301-15.368-55.68 0l-156.775 156.751c-14.991 14.991-16.369 39.385-2.092 55.089 7.242 7.978 17.437 12.641 28.209 12.901s21.18-3.904 28.8-11.523l90.314-90.289v258.265c0 21.194 16.295 39.385 37.489 40.443 10.761 0.518 21.265-3.394 29.065-10.826s12.214-17.735 12.215-28.509v-259.372l90.314 90.289c7.62 7.619 18.028 11.783 28.8 11.523s20.967-4.923 28.209-12.901c14.277-15.68 12.898-40.098-2.092-55.089zM78.769 960h945.231c43.503 0 78.769-35.266 78.769-78.769v-39.385c0-43.503-35.266-78.769-78.769-78.769h-945.231c-43.503 0-78.769 35.266-78.769 78.769v39.385c0 43.503 35.266 78.769 78.769 78.769z" />
<glyph unicode="&#xe924;" glyph-name="arrow-back-circle-outline" d="M523.662 617.182c15.321 15.44 15.224 40.377-0.217 55.698s-40.377 15.224-55.698-0.217l-195.397-196.923c-15.236-15.355-15.236-40.126 0-55.481l195.397-196.923c15.321-15.44 40.257-15.537 55.698-0.217s15.537 40.257 0.217 55.698l-167.871 169.182 167.871 169.182zM327.458 408.615h396.234c21.752 0 39.385 17.633 39.385 39.385s-17.633 39.385-39.385 39.385h-396.234c-21.752 0-39.385-17.633-39.385-39.385s17.633-39.385 39.385-39.385zM1024 448c0 282.675-229.325 512-512 512s-512-229.325-512-512c0-282.675 229.325-512 512-512s512 229.325 512 512zM945.231 448c0-239.172-194.059-433.231-433.231-433.231s-433.231 194.059-433.231 433.231c0 239.172 194.059 433.231 433.231 433.231s433.231-194.059 433.231-433.231z" />
<glyph unicode="&#xe925;" glyph-name="arrow-back-circle-sharp" d="M0 448c0-282.757 229.243-512 512-512s512 229.243 512 512c0 282.757-229.243 512-512 512s-512-229.243-512-512zM551.385 645.145l-156.505-157.76h368.197v-78.769h-368.197l156.505-157.76-55.877-55.483-250.683 252.628 250.683 252.628 55.877-55.483z" />
<glyph unicode="&#xe926;" glyph-name="arrow-back-circle" d="M0 448c0-282.757 229.243-512 512-512s512 229.243 512 512c0 282.757-229.243 512-512 512s-512-229.243-512-512zM523.446 672.886c7.417-7.357 11.608-17.359 11.65-27.806s-4.069-20.483-11.428-27.898l-128.788-129.797h328.812c21.752 0 39.385-17.633 39.385-39.385s-17.633-39.385-39.385-39.385h-328.812l128.788-129.797c9.911-9.999 13.735-24.526 10.031-38.109s-14.373-24.158-27.988-27.742c-13.615-3.584-28.108 0.368-38.019 10.367l-195.422 196.923c-15.238 15.356-15.238 40.127 0 55.483l195.422 196.923c7.359 7.432 17.372 11.633 27.831 11.675s20.505-4.079 27.923-11.453z" />
<glyph unicode="&#xe927;" glyph-name="arrow-back-outline" horiz-adv-x="1033" d="M166.257 447.999l364.505 364.505c26.894 26.894 26.894 70.499 0 97.393s-70.499 26.894-97.393 0l-413.201-413.201c-26.894-26.894-26.894-70.499 0-97.393l413.201-413.201c26.894-26.894 70.499-26.894 97.393 0s26.894 70.499 0 97.393l-364.505 364.505zM126.254 379.132h837.881c38.034 0 68.867 30.833 68.867 68.867s-30.833 68.867-68.867 68.867h-837.881c-38.034 0-68.867-30.833-68.867-68.867s30.833-68.867 68.867-68.867z" />
<glyph unicode="&#xe928;" glyph-name="arrow-back-sharp" horiz-adv-x="1032" d="M591.074 46.293l-401.709 401.709 401.709 401.709-94.683 94.683-496.394-496.394 496.394-496.394zM83.522 514.954v-133.903h948.481v133.903z" />
<glyph unicode="&#xe929;" glyph-name="arrow-back" horiz-adv-x="1033" d="M166.258 448l364.505 364.505c26.894 26.894 26.894 70.499 0 97.393s-70.499 26.894-97.393 0l-413.201-413.201c-26.894-26.894-26.894-70.499 0-97.393l413.201-413.201c26.894-26.894 70.499-26.894 97.393 0s26.894 70.499 0 97.393l-364.505 364.505zM126.254 379.133h837.881c38.034 0 68.867 30.833 68.867 68.867s-30.833 68.867-68.867 68.867h-837.881c-38.034 0-68.867-30.833-68.867-68.867s30.833-68.867 68.867-68.867z" />
<glyph unicode="&#xe92a;" glyph-name="arrow-down-circle-outline" d="M342.818 459.662c-15.44 15.321-40.377 15.224-55.698-0.217s-15.224-40.377 0.217-55.698l196.923-195.397c15.355-15.236 40.126-15.236 55.481 0l196.923 195.397c15.44 15.321 15.537 40.257 0.217 55.698s-40.257 15.537-55.698 0.217l-169.182-167.871-169.182 167.871zM551.385 263.458v396.234c0 21.752-17.633 39.385-39.385 39.385s-39.385-17.633-39.385-39.385v-396.234c0-21.752 17.633-39.385 39.385-39.385s39.385 17.633 39.385 39.385zM512 960c-282.675 0-512-229.325-512-512s229.325-512 512-512c282.675 0 512 229.325 512 512s-229.325 512-512 512zM512 881.231c239.172 0 433.231-194.059 433.231-433.231s-194.059-433.231-433.231-433.231c-239.172 0-433.231 194.059-433.231 433.231s194.059 433.231 433.231 433.231z" />
<glyph unicode="&#xe92b;" glyph-name="arrow-down-circle-sharp" d="M512-64c282.757 0 512 229.243 512 512s-229.243 512-512 512c-282.757 0-512-229.243-512-512s229.243-512 512-512zM314.855 487.385l157.76-156.505v368.197h78.769v-368.197l157.76 156.505 55.483-55.902-252.628-250.658-252.628 250.683 55.483 55.877z" />
<glyph unicode="&#xe92c;" glyph-name="arrow-down-circle" d="M512-64c282.757 0 512 229.243 512 512s-229.243 512-512 512c-282.757 0-512-229.243-512-512s229.243-512 512-512zM287.114 459.446c7.357 7.417 17.359 11.608 27.806 11.65s20.483-4.069 27.898-11.428l129.797-128.788v328.812c0 21.752 17.633 39.385 39.385 39.385s39.385-17.633 39.385-39.385v-328.812l129.797 128.788c15.457 15.321 40.408 15.211 55.729-0.246s15.211-40.408-0.246-55.729l-196.923-195.422c-15.356-15.238-40.127-15.238-55.483 0l-196.923 195.422c-7.432 7.359-11.633 17.372-11.675 27.831s4.079 20.505 11.453 27.923z" />
<glyph unicode="&#xe92d;" glyph-name="arrow-down-outline" horiz-adv-x="1020" d="M510 100.811l-361.327 361.327c-26.66 26.66-69.884 26.66-96.544 0s-26.66-69.884 0-96.544l409.599-409.599c26.66-26.66 69.884-26.66 96.544 0l409.599 409.599c26.66 26.66 26.66 69.884 0 96.544s-69.884 26.66-96.544 0l-361.327-361.327zM578.266 61.157v830.576c0 37.703-30.564 68.267-68.267 68.267s-68.267-30.564-68.267-68.267v-830.576c0-37.703 30.564-68.267 68.267-68.267s68.267 30.564 68.267 68.267z" />
<glyph unicode="&#xe92e;" glyph-name="arrow-down-sharp" horiz-adv-x="985" d="M891.157 522.561l-398.53-398.53-398.53 398.53-93.934-93.934 492.464-492.464 492.464 492.464zM426.205 19.027h132.843v940.973h-132.843z" />
<glyph unicode="&#xe92f;" glyph-name="arrow-down" horiz-adv-x="1020" d="M510 100.811l-361.327 361.327c-26.66 26.66-69.884 26.66-96.544 0s-26.66-69.884 0-96.544l409.599-409.599c26.66-26.66 69.884-26.66 96.544 0l409.599 409.599c26.66 26.66 26.66 69.884 0 96.544s-69.884 26.66-96.544 0l-361.327-361.327zM578.266 61.157v830.576c0 37.703-30.564 68.267-68.267 68.267s-68.267-30.564-68.267-68.267v-830.576c0-37.703 30.564-68.267 68.267-68.267s68.267 30.564 68.267 68.267z" />
<glyph unicode="&#xe930;" glyph-name="arrow-forward-circle-outline" d="M668.209 448l-167.871-169.182c-15.321-15.44-15.224-40.377 0.217-55.698s40.377-15.224 55.698 0.217l195.397 196.923c15.236 15.355 15.236 40.126 0 55.481l-195.397 196.923c-15.321 15.44-40.257 15.537-55.698 0.217s-15.537-40.257-0.217-55.698l167.871-169.182zM696.542 487.385h-396.234c-21.752 0-39.385-17.633-39.385-39.385s17.633-39.385 39.385-39.385h396.234c21.752 0 39.385 17.633 39.385 39.385s-17.633 39.385-39.385 39.385zM512-64c282.675 0 512 229.325 512 512s-229.325 512-512 512c-282.675 0-512-229.325-512-512s229.325-512 512-512zM512 14.769c-239.172 0-433.231 194.059-433.231 433.231s194.059 433.231 433.231 433.231c239.172 0 433.231-194.059 433.231-433.231s-194.059-433.231-433.231-433.231z" />
<glyph unicode="&#xe931;" glyph-name="arrow-forward-circle-sharp" d="M1024 448c0 282.757-229.243 512-512 512s-512-229.243-512-512c0-282.757 229.243-512 512-512s512 229.243 512 512zM472.615 250.855l156.505 157.76h-368.197v78.769h368.197l-156.505 157.76 55.902 55.483 250.658-252.628-250.683-252.628-55.877 55.483z" />
<glyph unicode="&#xe932;" glyph-name="arrow-forward-circle" d="M1024 448c0 282.757-229.243 512-512 512s-512-229.243-512-512c0-282.757 229.243-512 512-512s512 229.243 512 512zM500.554 223.114c-7.417 7.357-11.608 17.359-11.65 27.806s4.069 20.483 11.428 27.898l128.788 129.797h-328.812c-21.752 0-39.385 17.633-39.385 39.385s17.633 39.385 39.385 39.385h328.812l-128.788 129.797c-9.911 9.999-13.735 24.526-10.031 38.109s14.373 24.158 27.988 27.742c13.615 3.584 28.108-0.368 38.019-10.367l195.422-196.923c15.238-15.356 15.238-40.127 0-55.483l-195.422-196.923c-7.359-7.432-17.372-11.633-27.831-11.675s-20.505 4.079-27.923 11.453z" />
<glyph unicode="&#xe933;" glyph-name="arrow-forward-outline" horiz-adv-x="1033" d="M866.742 447.999l-364.505-364.505c-26.894-26.894-26.894-70.499 0-97.393s70.499-26.894 97.393 0l413.202 413.202c26.894 26.894 26.894 70.499 0 97.393l-413.202 413.202c-26.894 26.894-70.499 26.894-97.393 0s-26.894-70.499 0-97.393l364.505-364.505zM906.746 516.866h-837.881c-38.034 0-68.867-30.833-68.867-68.867s30.833-68.867 68.867-68.867h837.881c38.034 0 68.867 30.833 68.867 68.867s-30.833 68.867-68.867 68.867z" />
<glyph unicode="&#xe934;" glyph-name="arrow-forward-sharp" horiz-adv-x="1064" d="M454.641 862.202l414.202-414.202-414.202-414.202 97.628-97.628 511.831 511.831-511.831 511.831zM977.978 378.966v138.067h-977.978v-138.067z" />
<glyph unicode="&#xe935;" glyph-name="arrow-forward" horiz-adv-x="1097" d="M920.56 448l-387.137-387.137c-28.564-28.564-28.564-74.876 0-103.44s74.876-28.564 103.44 0l438.857 438.857c28.564 28.564 28.564 74.876 0 103.44l-438.857 438.857c-28.564 28.564-74.876 28.564-103.44 0s-28.564-74.876 0-103.44l387.137-387.137zM963.048 521.143h-889.905c-40.396 0-73.143-32.747-73.143-73.143s32.747-73.143 73.143-73.143h889.905c40.396 0 73.143 32.747 73.143 73.143s-32.747 73.143-73.143 73.143z" />
<glyph unicode="&#xe936;" glyph-name="arrow-redo-circle-outline" d="M538.855 271.409v91.865c-140.48 0-208.025-33.157-267.274-95.212-13.292-13.908-36.923-3.249-35.175 15.828 13.415 151.262 84.037 288.222 302.449 288.222v91.865c0.077 8.121 4.946 15.43 12.412 18.629s16.116 1.685 22.050-3.86l208.025-196.283c4.051-3.814 6.348-9.131 6.348-14.695s-2.297-10.881-6.348-14.695l-207.803-196.357c-5.909-5.688-14.641-7.302-22.193-4.102s-12.466 10.596-12.49 18.798zM0 448c0-282.675 229.325-512 512-512s512 229.325 512 512c0 282.675-229.325 512-512 512s-512-229.325-512-512zM78.769 448c0 239.172 194.059 433.231 433.231 433.231s433.231-194.059 433.231-433.231c0-239.172-194.059-433.231-433.231-433.231s-433.231 194.059-433.231 433.231z" />
<glyph unicode="&#xe937;" glyph-name="arrow-redo-circle-sharp" d="M0 448c0-282.757 229.243-512 512-512s512 229.243 512 512c0 282.757-229.243 512-512 512s-512-229.243-512-512zM241.231 231.385c0 167.705 55.803 337.575 293.342 337.575v135.040l248.197-236.308-248.197-236.308v135.040c-164.16 0-224.788-47.483-293.342-135.040z" />
<glyph unicode="&#xe938;" glyph-name="arrow-redo-circle" d="M0 448c0-282.757 229.243-512 512-512s512 229.243 512 512c0 282.757-229.243 512-512 512s-512-229.243-512-512zM236.308 283.889c13.415 151.262 84.037 288.222 302.449 288.222v91.865c0.077 8.121 4.946 15.43 12.412 18.629s16.116 1.685 22.050-3.86l208.123-196.283c4.051-3.814 6.348-9.131 6.348-14.695s-2.297-10.881-6.348-14.695l-207.803-196.357c-5.934-5.545-14.585-7.059-22.050-3.86s-12.334 10.508-12.412 18.629v91.791c-140.48 0-208.025-33.157-267.274-95.212-13.514-13.908-37.095-3.249-35.495 15.828z" />
<glyph unicode="&#xe939;" glyph-name="arrow-redo-outline" horiz-adv-x="1151" d="M575.654 690.548c-209.121-9.593-359.851-88.143-454.86-226.595-84.001-122.41-120.794-285.382-120.794-480.904 0-42.118 53.255-60.45 79.18-27.256 73.776 94.462 130.9 148.131 202.909 185.359 74.239 38.381 166.774 58.897 293.565 62.665v-220.768c0-38.956 46.677-58.929 74.856-32.031l487.092 464.951c18.275 17.444 18.275 46.618 0 64.062l-487.092 464.951c-28.179 26.898-74.856 6.925-74.856-32.031v-222.403zM664.216 86.533v162.202c0 24.456-19.825 44.281-44.281 44.281-163.032 0-281.903-23.245-378.518-73.194-53.815-27.822-99.827-62.646-146.761-110.546 12.538 122.538 44.712 225.222 99.161 304.567 84.351 122.919 221.94 189.141 426.119 189.141 24.456 0 44.281 19.825 44.281 44.281v162.202l378.68-361.467-378.68-361.467z" />
<glyph unicode="&#xe93a;" glyph-name="arrow-redo-sharp" horiz-adv-x="1158" d="M0 49.363c0 178.282 40.181 320.723 119.402 423.68 95.666 124.299 246.762 191.36 449.558 199.652v287.304l588.605-500.87-588.605-500.87v285.635c-123.13-3.311-216.097-21.092-290.143-55.207-80-36.87-138.017-91.965-200.57-163.339l-78.247-89.35v113.363z" />
<glyph unicode="&#xe93b;" glyph-name="arrow-redo" horiz-adv-x="1154" d="M29.943-58.811c-17.919 6.171-29.943 23.035-29.943 41.987 0 202.857 40.738 365.088 121.132 482.224 97.127 141.528 250.339 217.732 456.082 227.195v223.004c0.002 17.772 10.6 33.831 26.94 40.82s35.273 3.562 48.126-8.712l488.412-466.211c8.771-8.378 13.732-19.979 13.732-32.108s-4.962-23.73-13.732-32.108l-488.412-466.211c-12.853-12.274-31.786-15.701-48.126-8.712s-26.938 23.048-26.94 40.82v221.367c-124.878-3.774-219.23-24.004-294.351-62.828-81.171-41.959-140.030-104.648-203.468-185.93-11.667-14.939-31.53-20.824-49.452-14.652v0.056z" />
<glyph unicode="&#xe93c;" glyph-name="arrow-undo-circle-outline" d="M485.145 271.409v91.865c140.48 0 208.025-33.157 267.274-95.212 13.292-13.908 36.923-3.249 35.175 15.828-13.415 151.262-84.037 288.222-302.449 288.222v91.865c-0.032 8.173-4.92 15.545-12.437 18.755s-16.222 1.646-22.148-3.986l-207.902-196.283c-4.051-3.814-6.348-9.131-6.348-14.695s2.297-10.881 6.348-14.695l207.803-196.357c5.909-5.688 14.641-7.302 22.193-4.102s12.466 10.596 12.49 18.798zM512 960c-282.675 0-512-229.325-512-512s229.325-512 512-512c282.675 0 512 229.325 512 512s-229.325 512-512 512zM512 881.231c239.172 0 433.231-194.059 433.231-433.231s-194.059-433.231-433.231-433.231c-239.172 0-433.231 194.059-433.231 433.231s194.059 433.231 433.231 433.231z" />
<glyph unicode="&#xe93d;" glyph-name="arrow-undo-circle-sharp" d="M512 960c-282.757 0-512-229.243-512-512s229.243-512 512-512c282.757 0 512 229.243 512 512s-229.243 512-512 512zM489.428 366.425v-135.040l-248.197 236.308 248.197 236.308v-135.040c237.538 0 293.342-169.846 293.342-337.575-68.554 87.557-129.182 135.040-293.342 135.040z" />
<glyph unicode="&#xe93e;" glyph-name="arrow-undo-circle" d="M512 960c-282.757 0-512-229.243-512-512s229.243-512 512-512c282.757 0 512 229.243 512 512s-229.243 512-512 512zM752.418 268.062c-59.249 62.055-126.794 95.212-267.274 95.212v-91.865c-0.032-8.173-4.92-15.545-12.437-18.755s-16.222-1.646-22.148 3.986l-207.902 196.283c-4.051 3.814-6.348 9.131-6.348 14.695s2.297 10.881 6.348 14.695l207.803 196.357c5.926 5.632 14.631 7.196 22.148 3.986s12.405-10.582 12.437-18.755v-91.865c218.412 0 289.034-136.96 302.449-288.222 1.797-19.003-21.785-29.662-35.077-15.754z" />
<glyph unicode="&#xe93f;" glyph-name="arrow-undo-outline" horiz-adv-x="1151" d="M575.654 203.817c126.791-3.768 219.326-24.284 293.565-62.665 72.009-37.228 129.134-90.897 202.909-185.359 25.925-33.194 79.18-14.862 79.18 27.256 0 195.523-36.793 358.494-120.794 480.904-95.010 138.452-245.739 217.002-454.86 226.595v222.403c0 38.956-46.677 58.929-74.856 32.031l-487.092-464.951c-18.275-17.444-18.275-46.618 0-64.062l487.092-464.951c28.179-26.898 74.856-6.925 74.856 32.031v220.768zM487.092 86.533l-378.68 361.467 378.68 361.467v-162.202c0-24.456 19.825-44.281 44.281-44.281 204.179 0 341.768-66.221 426.119-189.141 53.904-78.552 85.977-179.978 98.779-300.897l0.382-3.67c-46.935 47.9-92.946 82.724-146.761 110.546-96.615 49.949-215.486 73.194-378.518 73.194-24.456 0-44.281-19.825-44.281-44.281v-162.202z" />
<glyph unicode="&#xe940;" glyph-name="arrow-undo-sharp" horiz-adv-x="1158" d="M1157.565-64l-78.247 89.35c-62.553 71.374-120.57 126.47-200.57 163.339-74.045 34.115-166.957 51.896-290.143 55.207v-285.635l-588.605 500.87 588.605 500.87v-287.193c202.797-8.348 353.892-75.353 449.558-199.652 79.221-103.068 119.402-245.51 119.402-423.791v-113.363z" />
<glyph unicode="&#xe941;" glyph-name="arrow-undo" horiz-adv-x="1158" d="M1113.043-64c-13.707 0-26.65 6.311-35.089 17.113-63.61 81.447-122.63 144.306-204.021 186.435-75.325 38.873-169.934 59.158-295.151 62.943v-221.969c-0.054-17.761-10.66-33.791-26.985-40.787s-35.247-3.619-48.145 8.592l-489.739 467.478c-8.795 8.4-13.77 20.033-13.77 32.195s4.975 23.794 13.77 32.195l489.739 467.478c12.898 12.211 31.82 15.588 48.145 8.592s26.931-23.026 26.985-40.787v-223.61c206.303-9.489 360.014-86.010 457.322-227.812 80.612-117.454 121.461-280.125 121.461-483.534 0-24.589-19.933-44.522-44.522-44.522z" />
<glyph unicode="&#xe942;" glyph-name="arrow-up-circle-outline" d="M681.182 436.338c15.44-15.321 40.377-15.224 55.698 0.217s15.224 40.377-0.217 55.698l-196.923 195.397c-15.355 15.236-40.126 15.236-55.481 0l-196.923-195.397c-15.44-15.321-15.537-40.257-0.217-55.698s40.257-15.537 55.698-0.217l169.182 167.871 169.182-167.871zM472.615 632.542v-396.234c0-21.752 17.633-39.385 39.385-39.385s39.385 17.633 39.385 39.385v396.234c0 21.752-17.633 39.385-39.385 39.385s-39.385-17.633-39.385-39.385zM1024 448c0 282.675-229.325 512-512 512s-512-229.325-512-512c0-282.675 229.325-512 512-512s512 229.325 512 512zM945.231 448c0-239.172-194.059-433.231-433.231-433.231s-433.231 194.059-433.231 433.231c0 239.172 194.059 433.231 433.231 433.231s433.231-194.059 433.231-433.231z" />
<glyph unicode="&#xe943;" glyph-name="arrow-up-circle-sharp" d="M512 960c-282.757 0-512-229.243-512-512s229.243-512 512-512c282.757 0 512 229.243 512 512s-229.243 512-512 512zM709.145 408.615l-157.76 156.505v-368.197h-78.769v368.197l-157.76-156.505-55.483 55.877 252.628 250.683 252.628-250.683-55.483-55.877z" />
<glyph unicode="&#xe944;" glyph-name="arrow-up-circle" d="M512 960c-282.757 0-512-229.243-512-512s229.243-512 512-512c282.757 0 512 229.243 512 512s-229.243 512-512 512zM736.886 436.554c-7.357-7.417-17.359-11.608-27.806-11.65s-20.483 4.069-27.898 11.428l-129.797 128.788v-328.812c0-21.752-17.633-39.385-39.385-39.385s-39.385 17.633-39.385 39.385v328.812l-129.797-128.788c-9.999-9.911-24.526-13.735-38.109-10.031s-24.158 14.373-27.742 27.988c-3.584 13.615 0.368 28.108 10.367 38.019l196.923 195.422c15.356 15.238 40.127 15.238 55.483 0l196.923-195.422c7.432-7.359 11.633-17.372 11.675-27.831s-4.079-20.505-11.453-27.923z" />
<glyph unicode="&#xe945;" glyph-name="arrow-up-outline" horiz-adv-x="956" d="M477.867 795.19l361.328-361.328c26.66-26.66 69.884-26.66 96.544 0s26.66 69.884 0 96.544l-409.6 409.6c-26.66 26.66-69.884 26.66-96.544 0l-409.6-409.6c-26.66-26.66-26.66-69.884 0-96.544s69.884-26.66 96.544 0l361.328 361.328zM409.6 834.844v-830.578c0-37.703 30.564-68.267 68.267-68.267s68.267 30.564 68.267 68.267v830.578c0 37.703-30.564 68.267-68.267 68.267s-68.267-30.564-68.267-68.267z" />
<glyph unicode="&#xe946;" glyph-name="arrow-up-sharp" horiz-adv-x="985" d="M94.097 373.439l398.53 398.53 398.53-398.53 93.934 93.934-492.464 492.464-492.464-492.464zM559.049 876.973h-132.843v-940.973h132.843z" />
<glyph unicode="&#xe947;" glyph-name="arrow-up" horiz-adv-x="956" d="M477.867 795.19l361.328-361.328c26.66-26.66 69.884-26.66 96.544 0s26.66 69.884 0 96.544l-409.6 409.6c-26.66 26.66-69.884 26.66-96.544 0l-409.6-409.6c-26.66-26.66-26.66-69.884 0-96.544s69.884-26.66 96.544 0l361.328 361.328zM409.6 834.844v-830.578c0-37.703 30.564-68.267 68.267-68.267s68.267 30.564 68.267 68.267v830.578c0 37.703-30.564 68.267-68.267 68.267s-68.267-30.564-68.267-68.267z" />
<glyph unicode="&#xe948;" glyph-name="at-circle-outline" d="M1021.741 449.031c0 281.997-228.775 510.772-510.772 510.772s-510.772-228.775-510.772-510.772c0-281.997 228.775-510.772 510.772-510.772 282.021 0 510.772 228.726 510.772 510.772zM943.16 449.031c0-238.645-193.567-432.192-432.192-432.192-238.598 0-432.192 193.594-432.192 432.192s193.594 432.192 432.192 432.192c238.598 0 432.192-193.594 432.192-432.192zM643.119 420.053l15.57 123.731-9.467 11.453c-29.553 35.753-94.449 57.277-154.492 47.756-70.659-10.977-132.73-71.786-139.614-150.781-7.723-88.625 49.062-162.208 132.303-162.208 42.128 0 79.783 15.717 107.92 43.115 15.21-22.379 37.869-37.357 65.829-42.378 31.712-5.59 68.89 6.34 98.106 32.673 33.328 30.038 54.594 76.193 59.818 135.673 15.229 174.622-98.746 299.035-283.42 299.035-168.091 0-315.427-136.681-330.202-306.004-14.979-171.656 111.77-312.006 282.268-312.006 54.366 0 90.691 6.337 144.607 25.543 17.886 6.371 27.221 26.036 20.849 43.922s-26.036 27.221-43.922 20.849c-46.545-16.58-75.069-21.556-121.535-21.556-129.93 0-225.263 105.563-213.77 237.271 11.691 133.978 129.452 243.223 261.704 243.223 144.335 0 226.649-89.852 214.924-224.282-3.762-42.827-17.543-72.736-37.355-90.593-14.030-12.646-30.1-17.803-40.028-16.053-20.422 3.667-33.322 22.917-30.094 61.616zM577.646 452.215c-5.090-58.359-42.15-93.452-90.227-93.452-39.993 0-68.238 36.601-63.804 87.481 4.022 46.152 41.134 82.509 81.778 88.824 19.666 3.118 40.014 1.189 58.318-4.881 8.86-2.939 16.658-6.696 22.642-10.539l-7.81-62.061c-0.433-1.737-0.736-3.531-0.896-5.371z" />
<glyph unicode="&#xe949;" glyph-name="at-circle-sharp" d="M511.779 958.183c-282.030 0-510.772-228.644-510.772-510.772s228.669-510.772 510.772-510.772c282.103 0 510.772 228.669 510.772 510.772s-228.767 510.772-510.772 510.772zM818.267 459.050c-6.999-80.127-41.206-122.045-68.758-143.065s-60.63-30.303-89.213-25.195c-26.975 4.872-50.863 20.373-66.302 43.023-28.405-28.515-67.114-44.364-107.36-43.956-35.989-0.279-70.403 14.745-94.665 41.328-27.97 30.499-41.746 74.553-37.645 120.891 7.49 85.947 75.928 140.929 139.652 150.972 66.818 10.535 128.282-16.060 154.484-47.787l9.43-11.443-15.569-123.715c-2.922-35.214 8.079-57.658 30.18-61.636 5.869-1.031 19.915 0.319 35.312 12.106 16.502 12.647 37.178 39.29 41.991 94.468 5.697 65.197-10.682 120.793-47.345 160.82-38.062 41.5-96.015 63.454-167.573 63.454-132.604 0-250.008-109.104-261.697-243.108-5.623-64.338 13.899-124.452 54.982-169.267 40.174-43.809 96.654-68.070 158.757-68.070 46.657 0 75.167 5.034 121.529 21.56l32.464 11.517 23.058-64.755-32.39-11.541c-53.582-19.080-90.073-25.539-144.588-25.539-81.724 0-156.105 32.071-209.466 90.294-54.245 59.205-80.103 137.933-72.81 221.719 7.146 81.846 45.331 158.708 107.483 216.391s141.371 89.606 222.726 89.606c91.35 0 166.836-29.664 218.257-85.775 49.235-53.803 72.392-129.535 65.074-213.296zM504.658 535.175c-36.417-5.722-77.475-38.897-81.871-89.041-2.456-27.159 4.911-52.109 19.842-68.439 11.234-12.384 27.263-19.32 43.98-19.031 48.376 0 83 36.319 90.367 94.763l4.297 34.109h0.221l4.052 32.193c-24.351 14.387-52.947 19.856-80.889 15.471v-0.025z" />
<glyph unicode="&#xe94a;" glyph-name="at-circle" d="M511.902 958.183c-282.005 0-510.772-228.644-510.772-510.772s228.669-510.772 510.772-510.772c282.103 0 510.772 228.669 510.772 510.772s-228.742 510.772-510.772 510.772zM818.414 459.050c-6.999-80.127-41.23-122.045-68.758-143.065s-60.581-30.253-89.090-25.146c-26.684 4.777-50.375 19.962-65.86 42.212-28.893-28.105-67.743-43.618-108.048-43.146-35.989-0.276-70.401 14.748-94.665 41.328-27.945 30.499-41.746 74.553-37.62 120.891 7.367 85.947 75.904 140.929 139.652 150.972 66.793 10.535 128.258-16.060 154.459-47.787l9.454-11.443-15.569-123.715c-2.922-35.214 8.054-57.658 30.18-61.636 5.869-1.031 19.891 0.319 35.287 12.106 16.502 12.647 37.178 39.29 41.991 94.468 5.771 65.173-10.682 120.793-47.271 160.82-38.038 41.5-95.991 63.454-167.548 63.454-132.604 0-250.008-109.104-261.722-243.108-5.599-64.338 13.923-124.452 55.006-169.267 40.174-43.858 96.531-68.119 158.781-68.119 46.657 0 75.167 5.034 121.505 21.56 17.888 6.374 37.557-2.96 43.931-20.848s-2.96-37.557-20.848-43.931c-53.582-19.080-90.073-25.539-144.588-25.539-81.724 0-156.105 32.071-209.466 90.294-54.147 59.205-80.127 137.933-72.81 221.719 7.146 81.846 45.306 158.708 107.483 216.391s141.371 89.606 222.726 89.606c91.35 0 166.811-29.664 218.232-85.775 49.334-53.803 72.466-129.535 65.173-213.296zM504.805 535.175c-36.417-5.722-77.5-38.897-81.871-89.041-2.456-27.159 4.911-52.109 19.817-68.439 11.237-12.378 27.264-19.314 43.98-19.031 49.874 0 85.284 36.687 90.245 93.461 0.151 1.713 0.43 3.412 0.835 5.083l7.858 62.496c-24.343 14.385-52.931 19.854-80.864 15.471v0z" />
<glyph unicode="&#xe94b;" glyph-name="at-outline" horiz-adv-x="1029" d="M725.945 444.874l-0.428-4.517c-15.042-148.471-121.485-247.080-256.205-247.080-132.808 0-223.705 116.508-211.152 259.068 12.322 139.942 119.124 251.603 248.655 251.603 133.506 0 231.566-118.058 219.131-259.073zM641.162 452.352l0.225 2.783c6.758 91.723-53.834 163.7-134.574 163.7-82.793 0-155.222-75.724-163.871-173.956-8.42-95.628 46.865-166.491 126.369-166.491 91.519 0 162.367 66.475 171.851 173.964zM666.457 58.297l-3.99-1.664-3.935-1.614c-61.893-25.168-104.398-31.966-186.454-31.966-233.458 0-404.934 188.092-384.468 421.847 20.708 236.521 230.485 429.27 466.973 429.27 258.175 0 407.422-161.414 386.412-399.827-6.765-76.841-32.209-131.559-69.501-164.822-27.832-24.824-60.674-35.222-83.061-31.254-44.473 7.885-71.966 48.821-65.413 123.259l22.554 255.997c2.063 23.412-15.245 44.064-38.657 46.127s-44.064-15.245-46.127-38.657l-22.555-256c-10.235-116.272 44.997-198.512 135.341-214.531 49.061-8.695 107.93 9.942 154.57 51.543 54.189 48.334 89.039 123.281 97.631 220.87 25.412 288.361-163.253 492.406-471.195 492.406-280.668 0-527.208-226.528-551.761-506.959-24.812-283.401 185.762-514.382 469.255-514.382l5.72 0.011c92.605 0.37 145.623 9.942 221.629 41.877 21.668 9.104 31.853 34.050 22.749 55.718s-34.050 31.853-55.718 22.749z" />
<glyph unicode="&#xe94c;" glyph-name="at-sharp" horiz-adv-x="1029" d="M919.206 816.959c-85.298 93.091-211.37 142.323-364.624 142.323-135.647 0-267.809-52.663-371.885-148.307s-167.909-222.993-179.878-358.613c-12.102-137.429 30.348-266.745 119.529-364.118 88.756-96.921 212.965-150.302 349.729-150.302 86.495 0 142.589 6.277 227.355 41.891l39.231 16.49-32.981 78.462-39.231-16.437c-72.212-30.321-116.443-35.242-194.374-35.242-112.613 0-214.508 43.567-286.959 122.667-72.877 79.579-107.507 185.809-97.506 299.168 20.852 236.717 230.334 429.282 466.971 429.282 128.731 0 233.126-39.657 301.854-114.715 65.456-71.467 94.687-170.011 84.553-284.991-8.751-99.341-47.237-148.254-77.984-171.819-29.257-22.448-58.514-27.076-74.473-24.23-47.024 8.325-71.467 54.418-65.403 123.119l26.411 290.231-84.872 7.527-5.319-59.286c-40.087 41.032-95.093 64.063-152.456 63.834-63.302 0-123.784-26.784-170.223-75.457-44.604-46.625-72.425-109.182-78.329-176.128-6.516-74.127 15.294-144.53 59.871-193.204 38.79-42.441 93.791-66.393 151.286-65.882 72.936-0.803 142.508 30.625 190.118 85.883 22.683-44.495 64.888-75.804 114.050-84.606 44.923-7.979 97.692 7.155 141.179 40.455 80.298 61.52 104.687 160.090 111.018 231.929 12.022 137.509-25.799 261.718-106.656 350.075zM583.175 322.247c-30.962-28.635-71.692-44.362-113.863-43.966-33.635-0.585-65.89 13.353-88.516 38.247-28.486 31.119-42.29 77.851-37.848 128.253 8.591 97.559 80.564 173.948 163.867 173.948 36.339 0.145 71.030-15.151 95.431-42.078 28.911-31.571 43.088-76.787 38.912-124.29-4.734-53.94-24.815-98.783-57.982-130.008v-0.106z" />
<glyph unicode="&#xe94d;" glyph-name="at" horiz-adv-x="1029" d="M725.945 444.874l-0.428-4.517c-15.042-148.471-121.485-247.080-256.205-247.080-132.808 0-223.705 116.508-211.152 259.068 12.322 139.942 119.124 251.603 248.655 251.603 133.506 0 231.566-118.058 219.131-259.073zM641.162 452.352l0.225 2.783c6.758 91.723-53.834 163.7-134.574 163.7-82.793 0-155.222-75.724-163.871-173.956-8.42-95.628 46.865-166.491 126.369-166.491 91.519 0 162.367 66.475 171.851 173.964zM666.457 58.297l-3.99-1.664-3.935-1.614c-61.893-25.168-104.398-31.966-186.454-31.966-233.458 0-404.934 188.092-384.468 421.847 20.708 236.521 230.485 429.27 466.973 429.27 258.175 0 407.422-161.414 386.412-399.827-6.765-76.841-32.209-131.559-69.501-164.822-27.832-24.824-60.674-35.222-83.061-31.254-44.473 7.885-71.966 48.821-65.413 123.259l22.554 255.997c2.063 23.412-15.245 44.064-38.657 46.127s-44.064-15.245-46.127-38.657l-22.555-256c-10.235-116.272 44.997-198.512 135.341-214.531 49.061-8.695 107.93 9.942 154.57 51.543 54.189 48.334 89.039 123.281 97.631 220.87 25.412 288.361-163.253 492.406-471.195 492.406-280.668 0-527.208-226.528-551.761-506.959-24.812-283.401 185.762-514.382 469.255-514.382l5.72 0.011c92.605 0.37 145.623 9.942 221.629 41.877 21.668 9.104 31.853 34.050 22.749 55.718s-34.050 31.853-55.718 22.749z" />
<glyph unicode="&#xe94e;" glyph-name="attach-outline" horiz-adv-x="591" d="M334.354 928.457c-68.935 40.172-154.147 40.172-223.082 0-68.857-40.127-110.848-114.143-109.978-193.821v-500.432c-1.421-106.025 54.308-204.627 145.893-258.095 91.677-53.521 205.073-53.521 296.75 0 91.586 53.468 147.314 152.070 145.893 258.095v467.843c0 23.321-18.906 42.227-42.227 42.227s-42.227-18.906-42.227-42.227v-468.442l0.004-0.306c1.095-75.685-38.655-146.094-104.023-184.256s-146.223-38.162-211.592 0c-64.715 37.78-104.321 107.166-104.044 181.987l0.025 2.88v500.968l-0.003 0.512c-0.599 49.366 25.394 95.241 68.050 120.099s95.382 24.858 138.038 0c42.229-24.609 68.127-69.817 68.060-118.619l-0.013-1.963-0.343-497.258c-0.695-34.573-28.924-62.268-63.538-62.268-34.61 0-62.836 27.689-63.538 62.256v379.27c0 23.321-18.906 42.227-42.227 42.227s-42.227-18.906-42.227-42.227l0.005-380.312c1.277-80.819 67.157-145.667 147.986-145.667s146.71 64.848 147.986 145.667l0.348 498.025c0.876 79.684-41.116 153.707-109.978 193.836z" />
<glyph unicode="&#xe94f;" glyph-name="attach-sharp" horiz-adv-x="596" d="M336.959 929.009c-69.472 40.485-155.348 40.485-224.821 0-69.394-40.44-111.712-115.033-110.835-195.331l0.004-505.243c2.346-162.11 134.429-292.296 296.557-292.296s294.211 130.186 296.561 292.296v514.956h-85.112v-514.019c-1.828-115.453-95.946-208.122-211.449-208.122s-209.621 92.669-211.449 208.122v504.55l-0.003 0.516c-0.604 49.751 25.592 95.983 68.58 121.034s96.126 25.051 139.113 0c42.558-24.801 68.658-70.361 68.59-119.543l-0.013-1.978-0.346-501.133c-0.7-34.842-29.15-62.754-64.034-62.754-34.879 0-63.326 27.905-64.033 62.741v423.984h-85.112l0.005-425.034c1.287-81.449 67.68-146.802 149.14-146.802s147.853 65.353 149.14 146.802l0.351 501.906c0.883 80.305-41.436 154.905-110.835 195.347z" />
<glyph unicode="&#xe950;" glyph-name="attach" horiz-adv-x="591" d="M334.354 928.457c-68.935 40.172-154.147 40.172-223.082 0-68.857-40.127-110.848-114.143-109.978-193.821v-500.432c-1.421-106.025 54.308-204.627 145.893-258.095 91.677-53.521 205.073-53.521 296.75 0 91.586 53.468 147.314 152.070 145.893 258.095v467.843c0 23.321-18.906 42.227-42.227 42.227s-42.227-18.906-42.227-42.227v-468.442l0.004-0.306c1.095-75.685-38.655-146.094-104.023-184.256s-146.223-38.162-211.592 0c-64.715 37.78-104.321 107.166-104.044 181.987l0.025 2.88v500.968l-0.003 0.512c-0.599 49.366 25.394 95.241 68.050 120.099s95.382 24.858 138.038 0c42.229-24.609 68.127-69.817 68.060-118.619l-0.013-1.963-0.343-497.258c-0.695-34.573-28.924-62.268-63.538-62.268-34.61 0-62.836 27.689-63.538 62.256v379.27c0 23.321-18.906 42.227-42.227 42.227s-42.227-18.906-42.227-42.227l0.005-380.312c1.277-80.819 67.157-145.667 147.986-145.667s146.71 64.848 147.986 145.667l0.348 498.025c0.876 79.684-41.116 153.707-109.978 193.836z" />
<glyph unicode="&#xe951;" glyph-name="backspace-outline" horiz-adv-x="1050" d="M233.304 84.326c21.373-24.491 52.288-38.551 84.794-38.564h619.109c62.264 0.278 112.524 50.538 112.802 112.623v579.050c-0.278 62.264-50.538 112.524-112.623 112.802h-619.273c-32.491-0.030-63.358-14.046-84.739-38.462-1.186-1.354-2.279-2.786-3.273-4.286l-223.418-337.276c-8.921-13.467-8.92-30.964 0.002-44.431l222.415-335.676c1.219-2.036 2.623-3.971 4.202-5.781zM88.468 448.003l206.909 312.355c6.023 6.012 14.205 9.425 22.774 9.433h619.057c17.756-0.080 32.275-14.599 32.356-32.535v-578.69c-0.080-17.756-14.6-32.275-32.536-32.356h-618.914c-8.181 0-16.020 3.133-21.943 8.679l-0.65 0.626-207.052 312.489zM741.685 636.508l-326.843-326.843c-15.708-15.708-15.708-41.177 0-56.885s41.177-15.708 56.885 0l326.843 326.843c15.708 15.708 15.708 41.177 0 56.885s-41.177 15.708-56.885 0zM798.57 309.665l-326.843 326.843c-15.708 15.708-41.177 15.708-56.885 0s-15.708-41.177 0-56.885l326.843-326.843c15.708-15.708 41.177-15.708 56.885 0s15.708 41.177 0 56.885z" />
<glyph unicode="&#xe952;" glyph-name="backspace-sharp" horiz-adv-x="1043" d="M280.806 849.159l-280.811-401.159 280.811-401.159h762.202v802.318h-762.202zM820.616 281.669l-56.739-56.814-162.971 162.971-162.971-162.971-56.839 56.814 162.971 162.971-162.971 162.971 56.739 56.739 162.971-162.971 162.971 162.971 56.739-56.739-162.971-162.971 163.071-162.971z" />
<glyph unicode="&#xe953;" glyph-name="backspace" horiz-adv-x="1037" d="M925.769 844.667h-610.521c-31.978-0.040-62.395-13.83-83.499-37.857-1.807-2.060-3.394-4.304-4.735-6.694l-221.34-331.664c-7.573-12.584-7.573-28.322 0-40.906l221.018-331.143c1.39-2.552 3.052-4.946 4.958-7.14 21.099-24.070 51.54-37.89 83.548-37.931h610.57c61.408 0.068 111.172 49.832 111.24 111.24v570.854c-0.068 61.408-49.832 111.172-111.24 111.24zM789.092 311.646c10.263-9.972 14.36-24.699 10.72-38.538s-14.45-24.645-28.291-28.279c-13.841-3.634-28.565 0.47-38.533 10.737l-133.132 132.933-133.057-133.008c-15.506-15.506-40.647-15.506-56.153 0s-15.506 40.647 0 56.153l133.008 133.057-133.107 133.107c-15.499 15.534-15.472 40.691 0.062 56.19s40.691 15.472 56.19-0.062l133.107-133.132 133.057 133.132c15.499 15.499 40.629 15.499 56.128 0s15.499-40.629 0-56.128l-133.132-133.107 133.132-133.057z" />
<glyph unicode="&#xe954;" glyph-name="bandage-outline" d="M66.69 315.518l577.805 577.805c86.384 86.384 226.441 86.384 312.825 0l2.581-2.623c83.81-86.573 82.955-224.697-2.566-310.218l-577.805-577.805c-86.384-86.384-226.441-86.384-312.825 0l-2.581 2.623c-82.972 85.707-82.964 221.94 0.025 307.637l2.54 2.581zM114.761 267.446l-1.777-1.806c-58.052-59.966-57.46-155.639 1.777-214.876l1.821-1.792c59.966-58.052 155.639-57.46 214.876 1.777l577.805 577.805c59.835 59.835 59.835 156.847 0 216.682l-1.821 1.792c-59.966 58.052-155.639 57.46-214.876-1.777l-577.805-577.805zM602.112 706.378l168.25-168.25c39.824-39.824 39.824-104.391 0-144.215l-198.295-198.295c-39.824-39.824-104.391-39.824-144.215 0l-168.25 168.25c-39.824 39.824-39.824 104.391 0 144.215l198.295 198.295c39.824 39.824 104.391 39.824 144.215 0zM554.041 658.307c-13.275 13.275-34.797 13.275-48.072 0l-198.295-198.295c-13.275-13.275-13.275-34.797 0-48.072l168.25-168.25c13.275-13.275 34.797-13.275 48.072 0l198.295 198.295c13.275 13.275 13.275 34.797 0 48.072l-168.25 168.25zM545.992 549.975c0-18.773-15.219-33.992-33.992-33.992s-33.992 15.219-33.992 33.992c0 18.773 15.219 33.992 33.992 33.992s33.992-15.219 33.992-33.992zM647.967 448c0-18.773-15.219-33.992-33.992-33.992s-33.992 15.219-33.992 33.992c0 18.773 15.219 33.992 33.992 33.992s33.992-15.219 33.992-33.992zM444.017 448c0-18.773-15.219-33.992-33.992-33.992s-33.992 15.219-33.992 33.992c0 18.773 15.219 33.992 33.992 33.992s33.992-15.219 33.992-33.992zM545.992 346.025c0-18.773-15.219-33.992-33.992-33.992s-33.992 15.219-33.992 33.992c0 18.773 15.219 33.992 33.992 33.992s33.992-15.219 33.992-33.992z" />
<glyph unicode="&#xe955;" glyph-name="bandage-sharp" horiz-adv-x="1022" d="M24.929 274.282c-33.215-33.248-33.215-87.119 0-120.368l192.985-192.985c33.248-33.215 87.119-33.215 120.368 0l159.88 159.88-313.353 313.353-159.88-159.88zM1021.871 678.773c0.065 22.672-8.942 44.428-25.015 60.418l-193.73 193.73c-33.368 33.348-87.447 33.348-120.815 0l-154.345-154.473 314.481-314.481 154.409 154.409c16.071 15.982 25.079 37.731 25.015 60.397v0zM547.255 169.774l246.952 246.952-313.565 313.353-246.952-246.952 313.565-313.353zM589.045 471.013c9.74 9.746 24.393 12.665 37.124 7.394s21.032-17.693 21.032-31.472c0-13.779-8.301-26.201-21.032-31.472s-27.384-2.353-37.124 7.394c-13.292 13.3-13.292 34.855 0 48.156zM486.858 573.2c9.74 9.746 24.393 12.665 37.124 7.394s21.032-17.693 21.032-31.472c0-13.779-8.301-26.201-21.032-31.472s-27.384-2.353-37.124 7.394c-13.292 13.3-13.292 34.855 0 48.156zM486.858 368.826c9.74 9.746 24.393 12.665 37.124 7.394s21.032-17.693 21.032-31.472c0-13.779-8.301-26.201-21.032-31.472s-27.384-2.353-37.124 7.394c-13.292 13.3-13.292 34.855 0 48.156zM432.826 471.013c9.746-9.74 12.665-24.393 7.394-37.124s-17.693-21.032-31.472-21.032c-13.779 0-26.201 8.301-31.472 21.032s-2.353 27.384 7.394 37.124c13.3 13.292 34.855 13.292 48.156 0z" />
<glyph unicode="&#xe956;" glyph-name="bandage" horiz-adv-x="1020" d="M548.984 658.572c-6.415 6.416-15.116 10.021-24.189 10.021s-17.774-3.605-24.189-10.021l-199.541-199.541c-6.416-6.415-10.021-15.116-10.021-24.189s3.605-17.774 10.021-24.189l169.313-169.313c6.415-6.416 15.116-10.021 24.189-10.021s17.774 3.605 24.189 10.021l199.541 199.541c6.416 6.415 10.021 15.116 10.021 24.189s-3.605 17.774-10.021 24.189l-169.313 169.313zM428.22 422.753c-9.781-9.787-24.494-12.718-37.279-7.425s-21.12 17.767-21.12 31.603c0 13.837 8.336 26.31 21.12 31.603s27.498 2.362 37.279-7.425c13.347-13.356 13.347-35.001 0-48.357zM530.834 320.139c-9.781-9.787-24.494-12.718-37.279-7.425s-21.12 17.767-21.12 31.603c0 13.837 8.336 26.31 21.12 31.603s27.498 2.362 37.279-7.425c13.347-13.356 13.347-35.001 0-48.357zM530.834 525.367c-9.781-9.787-24.494-12.718-37.279-7.425s-21.12 17.767-21.12 31.603c0 13.837 8.336 26.31 21.12 31.603s27.498 2.362 37.279-7.425c13.347-13.356 13.347-35.001 0-48.357zM633.448 422.753c-9.781-9.787-24.494-12.718-37.279-7.425s-21.12 17.767-21.12 31.603c0 13.837 8.336 26.31 21.12 31.603s27.498 2.362 37.279-7.425c13.347-13.356 13.347-35.001 0-48.357zM954.757 895.033c-87.052 86.623-227.737 86.623-314.789 0l-149.132-149.41c-2.82-2.839-3.295-7.254-1.142-10.628s6.358-4.802 10.12-3.439c7.966 3.201 16.415 5.037 24.991 5.43 27.228 0.070 53.354-10.753 72.556-30.057l169.291-169.291c19.304-19.203 30.127-45.328 30.057-72.556-0.391-8.576-2.226-17.025-5.43-24.991-1.363-3.763 0.066-7.967 3.439-10.12s7.789-1.679 10.628 1.142l149.41 149.132c86.623 87.052 86.623 227.737 0 314.789zM503.107 167.244c-27.2-0.054-53.305 10.714-72.556 29.929l-169.291 169.377c-8.314 8.305-15.134 17.981-20.159 28.604-9.812 20.737-2.972 53.445 5.302 78.884 1.127 3.743-0.428 7.773-3.776 9.79s-7.637 1.507-10.419-1.239l-165.101-164.695c-86.927-86.927-86.927-227.863 0-314.789s227.863-86.927 314.789 0l155.524 155.802c2.833 2.84 3.311 7.268 1.149 10.648s-6.383 4.801-10.149 3.419c-8.936-3.378-17.957-5.729-25.311-5.729z" />
<glyph unicode="&#xe957;" glyph-name="bar-chart-outline" d="M0 925.867v-921.6c0-37.703 30.564-68.267 68.267-68.267h921.6c18.851 0 34.133 15.282 34.133 34.133s-15.282 34.133-34.133 34.133h-921.6v921.6c0 18.851-15.282 34.133-34.133 34.133s-34.133-15.282-34.133-34.133zM213.333 550.4h85.333c42.415 0 76.8-34.385 76.8-76.8v-324.267c0-42.415-34.385-76.8-76.8-76.8h-85.333c-42.415 0-76.8 34.385-76.8 76.8v324.267c0 42.415 34.385 76.8 76.8 76.8zM213.333 482.133c-4.713 0-8.533-3.821-8.533-8.533v-324.267c0-4.713 3.821-8.533 8.533-8.533h85.333c4.713 0 8.533 3.821 8.533 8.533v324.267c0 4.713-3.821 8.533-8.533 8.533h-85.333zM520.533 652.8h85.333c42.415 0 76.8-34.385 76.8-76.8v-426.667c0-42.415-34.385-76.8-76.8-76.8h-85.333c-42.415 0-76.8 34.385-76.8 76.8v426.667c0 42.415 34.385 76.8 76.8 76.8zM520.533 584.533c-4.713 0-8.533-3.821-8.533-8.533v-426.667c0-4.713 3.821-8.533 8.533-8.533h85.333c4.713 0 8.533 3.821 8.533 8.533v426.667c0 4.713-3.821 8.533-8.533 8.533h-85.333zM826.965 789.333h85.333c42.415 0 76.8-34.385 76.8-76.8v-563.2c0-42.415-34.385-76.8-76.8-76.8h-85.333c-42.415 0-76.8 34.385-76.8 76.8v563.2c0 42.415 34.385 76.8 76.8 76.8zM826.965 721.067c-4.713 0-8.533-3.821-8.533-8.533v-563.2c0-4.713 3.821-8.533 8.533-8.533h85.333c4.713 0 8.533 3.821 8.533 8.533v563.2c0 4.713-3.821 8.533-8.533 8.533h-85.333z" />
<glyph unicode="&#xe958;" glyph-name="bar-chart-sharp" d="M1024-64h-1024v1024h68.267v-955.733h955.733zM375.467 72.533h-238.933v477.867h238.933zM682.667 72.533h-238.933v580.267h238.933zM989.099 72.533h-238.933v716.8h238.933z" />
<glyph unicode="&#xe959;" glyph-name="bar-chart" d="M989.867-64h-921.6c-37.703 0-68.267 30.564-68.267 68.267v921.6c0 18.851 15.282 34.133 34.133 34.133s34.133-15.282 34.133-34.133v-921.6h921.6c18.851 0 34.133-15.282 34.133-34.133s-15.282-34.133-34.133-34.133zM298.667 72.533h-85.333c-42.415 0-76.8 34.385-76.8 76.8v324.267c0 42.415 34.385 76.8 76.8 76.8h85.333c42.415 0 76.8-34.385 76.8-76.8v-324.267c0-42.415-34.385-76.8-76.8-76.8zM605.867 72.533h-85.333c-42.415 0-76.8 34.385-76.8 76.8v426.667c0 42.415 34.385 76.8 76.8 76.8h85.333c42.415 0 76.8-34.385 76.8-76.8v-426.667c0-42.415-34.385-76.8-76.8-76.8v0zM912.299 72.533h-85.333c-42.415 0-76.8 34.385-76.8 76.8v563.2c0 42.415 34.385 76.8 76.8 76.8h85.333c42.415 0 76.8-34.385 76.8-76.8v-563.2c0-42.415-34.385-76.8-76.8-76.8z" />
<glyph unicode="&#xe95a;" glyph-name="barbell-outline" horiz-adv-x="1051" d="M70.065 412.965h910.875c19.349 0 35.034 15.685 35.034 35.034s-15.685 35.034-35.034 35.034h-910.875c-19.349 0-35.034-15.685-35.034-35.034s15.685-35.034 35.034-35.034zM840.805 763.302c38.697 0 70.067-31.37 70.067-70.067v-490.471c0-38.697-31.37-70.067-70.067-70.067s-70.067 31.37-70.067 70.067v490.471c0 38.697 31.37 70.067 70.067 70.067zM210.199 763.302c38.697 0 70.067-31.37 70.067-70.067v-490.471c0-38.697-31.37-70.067-70.067-70.067s-70.067 31.37-70.067 70.067v490.471c0 38.697 31.37 70.067 70.067 70.067zM52.548 623.167c29.023 0 52.55-23.528 52.55-52.55v-245.235c0-29.023-23.528-52.55-52.55-52.55s-52.55 23.528-52.55 52.55v245.235c0 29.023 23.528 52.55 52.55 52.55zM52.548 553.1c9.674 0 17.517 7.843 17.517 17.517v-245.235c0 9.674-7.843 17.517-17.517 17.517s-17.517-7.843-17.517-17.517v245.235c0-9.674 7.843-17.517 17.517-17.517zM998.456 623.167c29.023 0 52.55-23.528 52.55-52.55v-245.235c0-29.023-23.528-52.55-52.55-52.55s-52.55 23.528-52.55 52.55v245.235c0 29.023 23.528 52.55 52.55 52.55zM998.456 553.1c9.674 0 17.517 7.843 17.517 17.517v-245.235c0 9.674-7.843 17.517-17.517 17.517s-17.517-7.843-17.517-17.517v245.235c0-9.674 7.843-17.517 17.517-17.517z" />
<glyph unicode="&#xe95b;" glyph-name="barbell-sharp" horiz-adv-x="1051" d="M1051.007 623.168h-126.997v140.135h-166.41v-267.132h-464.196v267.132h-166.41v-140.135h-126.997v-350.336h126.997v-140.135h166.41v267.132h464.196v-267.132h166.41v140.135h126.997z" />
<glyph unicode="&#xe95c;" glyph-name="barbell" horiz-adv-x="1051" d="M987.509 623.177c-21.892 0.711-42.693-9.558-55.441-27.37-1.094-1.567-3.077-2.243-4.9-1.673s-3.066 2.258-3.071 4.169v80.249c0 45.434-35.778 83.665-81.19 84.738-22.425 0.567-44.129-7.945-60.191-23.606s-25.118-37.144-25.116-59.576v-179.548c0-2.418-1.961-4.379-4.379-4.379h-455.437c-2.418 0-4.379 1.961-4.379 4.379v177.993c0 45.434-35.778 83.665-81.19 84.738-22.411 0.543-44.092-7.98-60.134-23.638s-25.086-37.128-25.086-59.544v-81.848c-0.004-1.91-1.247-3.598-3.071-4.169s-3.806 0.106-4.9 1.673c-12.755 17.855-33.598 28.145-55.528 27.414-35.691-1.116-63.498-31.333-63.498-67.046v-216.157c0-35.712 27.896-65.929 63.498-67.046 21.892-0.711 42.693 9.558 55.441 27.37 1.068 1.66 3.115 2.399 4.998 1.806s3.136-2.373 3.059-4.345v-80.293c0-45.347 35.778-83.665 81.19-84.76 22.414-0.543 44.099 7.983 60.142 23.646s25.084 37.138 25.078 59.558v179.548c0 2.418 1.961 4.379 4.379 4.379h455.437c2.418 0 4.379-1.961 4.379-4.379v-177.993c0-45.434 35.778-83.665 81.19-84.738 22.411-0.543 44.092 7.98 60.134 23.638s25.086 37.128 25.086 59.544v81.848c0.004 1.91 1.247 3.598 3.071 4.169s3.806-0.106 4.9-1.673c12.755-17.855 33.598-28.145 55.528-27.414 35.691 1.116 63.498 31.333 63.498 67.046v216.202c0 35.712-27.896 65.929-63.498 67.089z" />
<glyph unicode="&#xe95d;" glyph-name="barcode-outline" horiz-adv-x="1039" d="M926.762 768.11l0.554 0.002-0.375 39.96-0.179-39.962zM959.085 735.786l-0.001-574.925c-0.079-17.64-14.504-32.065-32.323-32.145l-87.938-0.825c-22.070-0.207-39.793-18.266-39.585-40.336s18.266-39.793 40.336-39.588l87.742 0.828c61.483 0.275 111.417 50.208 111.693 111.888v575.283c-0.276 61.859-50.21 111.793-111.89 112.068h-0.554l-87.742-0.825c-22.070-0.207-39.793-18.266-39.585-40.336s18.266-39.793 40.336-39.585l87.411 0.821c17.716-0.198 32.021-14.578 32.101-32.322zM199.447 848.033l-91.753-0.824c-61.613-0.107-107.699-50.268-107.699-112.068v-575.129c0-61.865 46.185-112.044 107.897-112.044l92.271 0.826c22.070 0.198 39.8 18.249 39.604 40.319-0.2 22.070-18.251 39.8-40.32 39.602l-91.696-0.822c-15.952 0.076-27.832 13.039-27.832 32.119v575.129c0 18.855 11.599 31.749 27.248 32.135l92.996 0.835c22.070 0.198 39.8 18.249 39.604 40.319-0.2 22.070-18.251 39.8-40.32 39.604zM799.237 608.261v-319.697c0-22.071 17.892-39.962 39.962-39.962s39.962 17.892 39.962 39.962v319.697c0 22.071-17.892 39.962-39.962 39.962s-39.962-17.892-39.962-39.962zM639.388 688.185v-479.545c0-22.071 17.892-39.962 39.962-39.962s39.962 17.892 39.962 39.962v479.545c0 22.071-17.892 39.962-39.962 39.962s-39.962-17.892-39.962-39.962zM479.54 648.223v-399.621c0-22.071 17.892-39.962 39.962-39.962s39.962 17.892 39.962 39.962v399.621c0 22.071-17.892 39.962-39.962 39.962s-39.962-17.892-39.962-39.962zM319.692 688.185v-479.545c0-22.071 17.892-39.962 39.962-39.962s39.962 17.892 39.962 39.962v479.545c0 22.071-17.892 39.962-39.962 39.962s-39.962-17.892-39.962-39.962zM159.843 608.261v-319.697c0-22.071 17.892-39.962 39.962-39.962s39.962 17.892 39.962 39.962v319.697c0 22.071-17.892 39.962-39.962 39.962s-39.962-17.892-39.962-39.962z" />
<glyph unicode="&#xe95e;" glyph-name="barcode-sharp" horiz-adv-x="1035" d="M955.388 129.674l-119.697-0.823 0.548-79.614 159.231 1.095c21.878 0.15 39.534 17.929 39.534 39.807v716.543c0 22.092-17.99 39.959-40.082 39.809l-159.231-1.097 0.548-79.614 119.149 0.819v-636.924zM79.614 766.325l119.697 0.823-0.548 79.614-159.231-1.095c-21.878-0.15-39.534-17.929-39.534-39.807v-716.543c0-22.092 17.99-39.959 40.082-39.809l159.231 1.097-0.548 79.614-119.149-0.819v636.924zM875.772 647.45h-79.616v-398.079h79.616zM716.541 727.065h-79.616v-557.311h79.616zM557.309 687.258h-79.616v-477.695h79.616zM398.077 727.065h-79.616v-557.311h79.616zM238.845 647.45h-79.616v-398.079h79.616z" />
<glyph unicode="&#xe95f;" glyph-name="barcode" horiz-adv-x="1039" d="M926.94 848.032h-0.325l-87.542-0.824-639.668 0.824-91.763-0.824c-60.368-0.125-107.648-49.303-107.648-112.069v-575.128c0-62.815 47.455-112.044 107.897-112.044h0.375l91.688 0.824 639.618-0.824 87.592 0.824c61.783 0.179 111.789 50.285 111.844 112.069v575.104c-0.069 61.865-50.203 112-112.069 112.069zM239.768 288.564c0-22.071-17.892-39.962-39.962-39.962s-39.962 17.892-39.962 39.962v319.696c0 22.071 17.892 39.962 39.962 39.962s39.962-17.892 39.962-39.962v-319.696zM399.616 208.639c0-22.071-17.892-39.962-39.962-39.962s-39.962 17.892-39.962 39.962v479.545c0 22.071 17.892 39.962 39.962 39.962s39.962-17.892 39.962-39.962v-479.545zM559.464 248.602c0-22.071-17.892-39.962-39.962-39.962s-39.962 17.892-39.962 39.962v399.621c0 22.071 17.892 39.962 39.962 39.962s39.962-17.892 39.962-39.962v-399.621zM719.312 208.639c0-22.071-17.892-39.962-39.962-39.962s-39.962 17.892-39.962 39.962v479.545c0 22.071 17.892 39.962 39.962 39.962s39.962-17.892 39.962-39.962v-479.545zM879.161 288.564c0-22.071-17.892-39.962-39.962-39.962s-39.962 17.892-39.962 39.962v319.696c0 22.071 17.892 39.962 39.962 39.962s39.962-17.892 39.962-39.962v-319.696z" />
<glyph unicode="&#xe960;" glyph-name="baseball-outline" d="M595.17 848.653l-149.095-43.298c-20.889-6.066-32.904-27.917-26.838-48.806s27.917-32.904 48.806-26.838l149.095 43.298c20.889 6.066 32.904 27.917 26.838 48.806s-27.917 32.904-48.806 26.838zM639.742 726.045l-126.769-89.6c-17.763-12.555-21.985-37.132-9.43-54.894s37.132-21.985 54.894-9.43l126.769 89.6c17.763 12.555 21.985 37.132 9.43 54.894s-37.132 21.985-54.894 9.43zM725.721 621.206l-89.6-126.769c-12.555-17.763-8.333-42.34 9.43-54.894s42.34-8.333 54.894 9.43l89.6 126.769c12.555 17.763 8.333 42.34-9.43 54.894s-42.34 8.333-54.894-9.43zM837.009 553.138l-43.298-149.095c-6.066-20.889 5.95-42.74 26.838-48.806s42.74 5.95 48.806 26.838l43.298 149.095c6.066 20.889-5.95 42.74-26.838 48.806s-42.74-5.95-48.806-26.838zM512-64c282.77 0 512 229.23 512 512s-229.23 512-512 512c-282.77 0-512-229.23-512-512s229.23-512 512-512zM512 14.769c-239.267 0-433.231 193.964-433.231 433.231s193.964 433.231 433.231 433.231c239.267 0 433.231-193.964 433.231-433.231s-193.964-433.231-433.231-433.231zM951.474 489.527l-0.772 0.070c-213.725 17.19-382.376 188.021-397.419 401.259l-0.409 6.475c-1.21 21.718-19.797 38.343-41.515 37.132s-38.343-19.797-37.132-41.515c14.24-255.563 215.024-461.346 470.16-481.867 21.682-1.744 40.671 14.419 42.415 36.1 1.723 21.423-14.037 40.219-35.328 42.346zM186.844 342.715l43.298 149.095c6.066 20.889-5.95 42.74-26.838 48.806s-42.74-5.95-48.806-26.838l-43.298-149.095c-6.066-20.889 5.95-42.74 26.838-48.806s42.74 5.95 48.806 26.838zM298.131 274.646l89.6 126.769c12.555 17.763 8.333 42.34-9.43 54.894s-42.34 8.333-54.894-9.43l-89.6-126.769c-12.555-17.763-8.333-42.34 9.43-54.894s42.34-8.333 54.894 9.43zM384.111 169.807l126.769 89.6c17.763 12.555 21.985 37.132 9.43 54.894s-37.132 21.985-54.894 9.43l-126.769-89.6c-17.763-12.555-21.985-37.132-9.43-54.894s37.132-21.985 54.894-9.43zM428.682 47.2l149.095 43.298c20.889 6.066 32.904 27.917 26.838 48.806s-27.917 32.904-48.806 26.838l-149.095-43.298c-20.889-6.066-32.904-27.917-26.838-48.806s27.917-32.904 48.806-26.838zM548.806 13.838c-19.749 255.782-225.75 457.463-481.893 471.787-21.718 1.214-40.308-15.407-41.522-37.124-1.2-21.459 15.013-39.865 36.351-41.471l0.773-0.051c214.569-11.999 387.555-179.376 407.207-392.725l0.548-6.479c1.674-21.687 20.613-37.91 42.3-36.236s37.91 20.613 36.236 42.3z" />
<glyph unicode="&#xe961;" glyph-name="baseball-sharp" horiz-adv-x="1029" d="M630.362 949.459c-0.128-8.234-3.169-16.157-8.584-22.362l-0.276-12.875-69.547 1.431c0-3.263 0.226-6.551 0.402-9.813v0c1.233-22.196 4.127-44.269 8.659-66.033l62.042 18.020 19.602-67.464-62.017-18.020c9.126-24.091 20.329-47.344 33.481-69.496l53.384 37.647 40.558-57.374-53.434-37.773c8.784-10.591 18.079-20.79 27.884-30.595 9.813-9.813 20.078-19.075 30.62-27.859l39.429 55.768 57.374-40.558-39.429-55.592c22.155-13.116 45.398-24.301 69.471-33.431l18.798 64.753 67.489-19.602-18.824-64.828c25.614-5.345 51.649-8.428 77.804-9.211l-1.029 61.917 43.696 0.728c-39.222 204.020-195.686 365.364-398.406 410.83 0.614-2.691 0.901-5.447 0.853-8.207v0zM409.098-17.92l70.049-1.23c-0.889 25.269-3.929 50.416-9.085 75.169l-60.587-17.569-19.602 67.464 60.511 17.569c-9.128 24.078-20.322 47.322-33.456 69.471l-51.024-36.091-40.558 57.374 51.125 36.166c-8.759 10.591-18.045 20.831-27.834 30.62s-20.078 19.125-30.595 27.909l-34.911-49.393-57.249 40.558 34.886 49.343c-22.161 13.144-45.423 24.338-69.522 33.456l-15.987-55.065-67.489 19.602 16.013 55.216c-21.775 4.491-43.856 7.343-66.058 8.533-3.991 0.226-7.981 0.402-11.997 0.502l1.004-56.069-44.449-0.803c37.744-208.935 198.334-374.161 406.111-417.832l0.703 45.101zM987.984 330.867l-1.38 82.974c-33.209 0.785-66.266 4.769-98.711 11.896l-19.501-67.589-67.614 19.576 19.652 67.765c-31.504 11.557-61.813 26.14-90.504 43.545l-41.060-58.102-57.374 40.558 40.985 58.002c-27.644 22.416-52.878 47.65-75.294 75.294l-55.693-39.329-40.558 57.399 55.642 39.329c-17.444 28.68-32.053 58.991-43.62 90.504l-64.627-18.773-19.602 67.489 64.577 18.748c-3.346 15.41-6.007 31.004-7.981 46.783h-1.18l-1.958 35.137-0.828 15.059-45.026 0.803c-1.505 0.033-3.006 0.167-4.493 0.402l-15.937 0.326 0.151 6.199c-9.113 6.756-14.403 17.496-14.205 28.838 0.020 1.403 0.129 2.803 0.326 4.191-203.699-45.5-360.719-207.959-399.26-413.089l40.408 0.703 1.129-63.197 52.279-2.886v-1.205c15.762-1.958 31.356-4.618 46.783-7.981l16.765 57.725 67.363-19.727-16.816-57.725c31.517-11.557 61.829-26.167 90.504-43.62l36.467 51.602 57.424-40.609-36.317-51.451c27.653-22.406 52.888-47.641 75.294-75.294l53.459 37.647 40.558-57.374-53.609-37.773c17.397-28.691 31.972-59 43.52-90.504l63.423 18.397 19.602-67.413-63.347-18.397c6.949-31.6 10.915-63.783 11.846-96.125l73.838-1.33-0.728-41.362c199.4 41.86 356.208 195.933 401.569 394.566l-36.342-0.602z" />
<glyph unicode="&#xe962;" glyph-name="baseball" horiz-adv-x="1029" d="M988.776 351.965l-1.183 65.591c-33.24 0.779-66.328 4.765-98.802 11.901l-12.58-43.652c-3.267-12.365-12.98-21.988-25.375-25.14s-25.525 0.663-34.302 9.966c-8.777 9.303-11.821 22.633-7.953 34.824l12.58 43.728c-31.575 11.58-61.952 26.2-90.701 43.652l-26.267-37.161c-11.227-15.889-33.21-19.668-49.099-8.441s-19.668 33.21-8.441 49.099l26.191 37.060c-27.705 22.479-53 47.774-75.479 75.479l-37.035-26.267c-10.279-7.263-23.651-8.49-35.080-3.22s-19.179 16.237-20.329 28.77c-1.151 12.533 4.473 24.728 14.751 31.991l37.085 26.216c-17.496 28.745-32.142 59.132-43.728 90.726l-43.577-12.58c-18.682-5.426-38.226 5.32-43.652 24.002s5.32 38.226 24.002 43.652l43.526 12.58c-5.896 26.991-9.623 54.41-11.146 81.995v0c-0.285 5.032-0.486 10.064-0.604 15.096l-45.841 0.83c-19.198 0.357-34.573 16.023-34.569 35.224-189.015-41.896-339.457-184.721-391.108-371.307 20.919-1.306 37.335-18.445 37.74-39.4l1.107-61.465c3.975-0.126 7.95-0.277 11.901-0.503 27.585-1.523 55.005-5.25 81.995-11.146l12.58 43.526c5.426 18.682 24.97 29.428 43.652 24.002s29.428-24.97 24.002-43.652l-12.58-43.577c31.543-11.593 61.878-26.239 90.575-43.728l26.040 37.085c11.227 15.889 33.21 19.668 49.099 8.441s19.668-33.21 8.441-49.099l-26.141-37.060c13.851-11.241 27.111-23.191 39.727-35.802s24.567-25.871 35.802-39.727l37.060 26.191c15.903 11.227 37.897 7.437 49.124-8.466s7.437-37.897-8.466-49.124l-37.136-26.242c17.463-28.742 32.099-59.109 43.702-90.676l43.728 12.706c18.682 5.426 38.226-5.32 43.652-24.002s-5.32-38.226-24.002-43.652l-43.652-12.58c6.946-31.663 10.906-63.908 11.825-96.311l45.967-0.83c22.224-0.399 39.918-18.736 39.526-40.96-0.016-1.001-0.083-2-0.201-2.994 189.278 45.070 337.925 191.43 385.925 379.987-18 1.506-31.943 16.384-32.28 34.444zM630.225 954.465c-0.275-19.247-15.95-34.709-35.198-34.72h-0.629l-42.293 0.755c0.126-3.296 0.252-6.592 0.428-9.888v0c1.242-22.249 4.135-44.375 8.655-66.195l40.985 11.926c18.002 3.753 35.861-6.973 41.006-24.627s-4.157-36.295-21.356-42.801l-40.935-11.901c9.151-24.146 20.372-47.455 33.538-69.667l34.821 24.606c15.889 11.227 37.872 7.448 49.099-8.441s7.448-37.872-8.441-49.099l-34.871-24.631c8.806-10.617 18.132-20.841 27.978-30.67 9.812-9.837 20.128-19.121 30.695-27.927l24.606 34.821c11.29 15.889 33.323 19.618 49.212 8.328s19.618-33.323 8.328-49.212l-24.556-34.72c22.209-13.156 45.509-24.377 69.642-33.538l11.976 40.96c5.426 18.682 24.97 29.428 43.652 24.002s29.428-24.97 24.002-43.652l-11.901-40.91c25.637-5.335 51.694-8.408 77.869-9.183l-0.403 22.644c-0.336 19.445 15.15 35.483 34.595 35.827h0.629c2.186-0.016 4.367-0.227 6.516-0.629-39.199 203.829-195.157 365.226-397.523 411.386-0.151-1.006-0.101-1.912-0.126-2.843zM396.114-55.32c0.399 22.224 18.736 39.918 40.96 39.526l42.168-0.73c-0.904 25.33-3.951 50.538-9.108 75.353l-40.91-11.875c-12.090-3.51-25.134-0.304-34.219 8.411s-12.83 21.615-9.825 33.84c3.005 12.225 12.304 21.918 24.394 25.428l40.784 11.825c-9.15 24.138-20.372 47.438-33.538 69.642l-34.72-24.556c-10.279-7.263-23.651-8.49-35.080-3.22s-19.179 16.237-20.329 28.77c-1.151 12.533 4.473 24.728 14.751 31.991l34.821 24.606c-8.806 10.617-18.090 20.883-27.927 30.695s-20.128 19.172-30.67 27.978l-24.631-34.871c-11.227-15.889-33.21-19.669-49.099-8.441s-19.669 33.21-8.441 49.099l24.606 34.821c-22.207 13.176-45.517 24.398-69.667 33.538l-11.8-40.935c-5.426-18.689-24.975-29.441-43.665-24.015s-29.441 24.975-24.015 43.665l11.901 40.985c-21.818 4.534-43.945 7.427-66.195 8.655-2.239 0.126-4.504 0.201-6.743 0.302l0.403-26.644c0.393-22.224-17.302-40.561-39.526-40.96h-0.73c-3.345 0.014-6.675 0.445-9.913 1.283 38.743-203.934 194.36-365.691 396.643-412.292-0.506 2.678-0.733 5.402-0.679 8.127z" />
<glyph unicode="&#xe963;" glyph-name="basket-outline" horiz-adv-x="1153" d="M93.694 630.673h965.255c51.409 0.052 93.239-41.367 93.694-92.774 0-1.209-0.034-2.419-0.129-3.624l-0.113-1.204-1.544-14.151c-0.2-1.831-0.522-3.646-0.965-5.433l-0.354-1.335-133.082-469.261c-17.963-61.979-74.363-104.8-138.7-105.595l-1.952-0.012h-598.808c-64.623-0.242-121.549 42.218-139.816 103.958l-0.542 1.877-133.4 470.334c-2.239 7.978-3.33 16.233-3.244 24.449 0.46 50.891 41.461 91.993 92.162 92.759l1.539 0.011zM1058.991 548.342l-965.924-0.012c-5.939-0.276-10.687-5.154-10.742-11.248 0-0.516 0.069-1.024 0.219-1.508l0.284-0.957 133.040-469.114c7.57-26.902 31.955-45.549 59.97-45.885h600c28.176-0.024 53.012 18.369 61.189 45.011l0.285 0.955 132.073 465.705 0.81 7.421-0.089 0.524c-0.976 5.025-5.292 8.851-10.566 9.096l-0.549 0.012zM591.826 435.315c82.418-0.137 149.158-66.988 149.158-149.6-0.391-82.536-67.42-149.232-149.956-149.211l-2.663 0.033c-81.272 1.722-146.463 68.276-146.193 149.869 0.276 82.417 67.237 149.045 149.654 148.909zM591.69 352.983c-37.001 0.061-67.063-29.852-67.186-66.851-0.122-36.968 29.688-67.059 66.643-67.297l1.113 0.010c36.653 0.635 66.22 30.452 66.394 67.064 0 37-29.963 67.012-66.963 67.073zM576.322 850.224l214.062-285.416 65.865 49.399-246.995 329.327c-16.466 21.955-49.399 21.955-65.865 0l-246.995-329.327 65.865-49.399 214.062 285.416z" />
<glyph unicode="&#xe964;" glyph-name="basket-sharp" horiz-adv-x="1096" d="M778.24 534.902l-230.262 307.006-230.262-307.006-70.85 53.137 265.686 354.249c8.363 11.15 21.487 17.712 35.425 17.712s27.062-6.562 35.425-17.712l265.686-354.249-70.85-53.137zM1061.611 605.751h-1027.266c-10.159 0-19.76-4.643-26.061-12.611s-8.609-18.382-6.264-28.266l149.061-628.874h793.794l149.061 628.874c2.345 9.884 0.037 20.298-6.264 28.266s-15.903 12.611-26.061 12.611v0zM547.978 163.882c-57.592 0.275-104.075 47.15-103.867 104.742 0.209 57.592 47.031 104.129 104.623 103.987s104.183-46.91 104.107-104.502c-0.335-57.672-47.19-104.243-104.863-104.227v0z" />
<glyph unicode="&#xe965;" glyph-name="basket" horiz-adv-x="1113" d="M1021.537 605.751h-177.429l-252.402 336.536c-8.363 11.15-21.487 17.712-35.425 17.712s-27.062-6.562-35.425-17.712l-252.402-336.536h-177.429c-49.697 0.077-90.080-40.084-90.28-89.78-0.050-8.438 1.172-16.835 3.627-24.908l128.055-451.501c17.111-60.468 72.326-102.196 135.168-102.151h577.37c62.816 0.194 118.009 41.713 135.611 102.013l128.221 452.11c0.592 2.141 1.017 4.325 1.273 6.531l1.467 13.644c0.166 1.424 0.249 2.856 0.249 4.29-0.213 49.675-40.575 89.814-90.25 89.752zM556.281 841.908l177.124-236.157h-354.249l177.124 236.157zM556.281 163.854c-57.558 0.275-104.022 47.109-103.839 104.668 0.184 57.559 46.944 104.097 104.503 104.006s104.172-46.777 104.172-104.336c-0.32-57.667-47.167-104.243-104.835-104.227v-0.111z" />
<glyph unicode="&#xe966;" glyph-name="basketball-outline" d="M512-64c282.77 0 512 229.23 512 512s-229.23 512-512 512c-282.77 0-512-229.23-512-512s229.23-512 512-512zM512 14.769c-239.267 0-433.231 193.964-433.231 433.231s193.964 433.231 433.231 433.231c239.267 0 433.231-193.964 433.231-433.231s-193.964-433.231-433.231-433.231zM951.474 489.527l-0.772 0.070c-213.725 17.19-382.376 188.021-397.419 401.259l-0.409 6.475c-1.21 21.718-19.797 38.343-41.515 37.132s-38.343-19.797-37.132-41.515c14.24-255.563 215.024-461.346 470.16-481.867 21.682-1.744 40.671 14.419 42.415 36.1 1.723 21.423-14.037 40.219-35.328 42.346zM548.806 13.838c-19.749 255.782-225.75 457.463-481.893 471.787-21.718 1.214-40.308-15.407-41.522-37.124-1.2-21.459 15.013-39.865 36.351-41.471l0.773-0.051c214.569-11.999 387.555-179.376 407.207-392.725l0.548-6.479c1.674-21.687 20.613-37.91 42.3-36.236s37.91 20.613 36.236 42.3zM149.972 754.329l668.357-668.357c15.381-15.381 40.318-15.381 55.698 0s15.381 40.318 0 55.698l-668.357 668.357c-15.381 15.381-40.318 15.381-55.698 0s-15.381-40.318 0-55.698zM205.671 85.972l668.357 668.357c15.381 15.381 15.381 40.318 0 55.698s-40.318 15.381-55.698 0l-668.357-668.357c-15.381-15.381-15.381-40.318 0-55.698s40.318-15.381 55.698 0z" />
<glyph unicode="&#xe967;" glyph-name="basketball-sharp" d="M512 503.705l84.8 84.8c-79.693 92.603-123.475 210.75-123.372 332.923 0 12.308 0.468 24.738 1.329 36.923-109.098-7.688-212.831-50.26-295.877-121.428l333.12-333.218zM652.652 644.357l192.468 192.566c-81.843 70.153-183.819 112.554-291.274 121.108-1.009-12.062-1.576-24.271-1.576-36.603-0.101-101.277 35.434-199.361 100.382-277.071zM708.357 588.652c77.7-64.974 175.785-100.536 277.071-100.456 12.308 0 24.615 0.566 36.603 1.576-8.539 107.481-50.94 209.485-121.108 291.348l-192.566-192.468zM315.643 307.348c-77.698 64.978-175.784 100.54-277.071 100.456-12.341 0-24.542-0.525-36.603-1.576 8.539-107.481 50.94-209.485 121.108-291.348l192.566 192.468zM512 392.295l-84.8-84.8c79.693-92.603 123.475-210.75 123.372-332.923 0-12.308-0.468-24.738-1.329-36.923 109.099 7.683 212.834 50.255 295.877 121.428l-333.12 333.218zM985.428 409.428c-122.173-0.102-240.32 43.68-332.923 123.372l-84.8-84.8 333.218-333.12c71.221 83.027 113.846 186.762 121.575 295.877-12.332-0.862-24.665-1.329-37.071-1.329zM456.295 448l-333.218 333.12c-71.226-83.024-113.851-186.76-121.575-295.877 12.308 0.862 24.615 1.329 36.923 1.329 122.173 0.102 240.32-43.68 332.923-123.372l84.948 84.8zM178.88 59.077c81.843-70.153 183.819-112.554 291.274-121.108 1.034 12.062 1.559 24.263 1.576 36.603 0.084 101.287-35.478 199.373-100.456 277.071l-192.394-192.566z" />
<glyph unicode="&#xe968;" glyph-name="basketball" d="M512 503.705l84.8 84.8c-79.693 92.603-123.475 210.75-123.372 332.923 0 12.308 0.468 24.738 1.329 36.923-109.098-7.688-212.831-50.26-295.877-121.428l333.12-333.218zM652.652 644.357l192.468 192.566c-81.843 70.153-183.819 112.554-291.274 121.108-1.009-12.062-1.576-24.271-1.576-36.603-0.101-101.277 35.434-199.361 100.382-277.071zM708.357 588.652c77.7-64.974 175.785-100.536 277.071-100.456 12.308 0 24.615 0.566 36.603 1.576-8.539 107.481-50.94 209.485-121.108 291.348l-192.566-192.468zM315.643 307.348c-77.698 64.978-175.784 100.54-277.071 100.456-12.341 0-24.542-0.525-36.603-1.576 8.539-107.481 50.94-209.485 121.108-291.348l192.566 192.468zM512 392.295l-84.8-84.8c79.693-92.603 123.475-210.75 123.372-332.923 0-12.308-0.468-24.738-1.329-36.923 109.099 7.683 212.834 50.255 295.877 121.428l-333.12 333.218zM985.428 409.428c-122.173-0.102-240.32 43.68-332.923 123.372l-84.8-84.8 333.218-333.12c71.221 83.027 113.846 186.762 121.575 295.877-12.332-0.862-24.665-1.329-37.071-1.329zM456.295 448l-333.218 333.12c-71.226-83.024-113.851-186.76-121.575-295.877 12.308 0.862 24.615 1.329 36.923 1.329 122.173 0.102 240.32-43.68 332.923-123.372l84.948 84.8zM178.88 59.077c81.843-70.153 183.819-112.554 291.274-121.108 1.034 12.062 1.559 24.263 1.576 36.603 0.084 101.287-35.478 199.373-100.456 277.071l-192.394-192.566z" />
</font>
</defs>
</svg>
